<svg width="57" height="30" viewBox="0 0 57 30" fill="none" xmlns="http://www.w3.org/2000/svg">
<g opacity="0.5">
<path d="M50.4375 2.78076C51.6325 1.61577 53.5459 1.63968 54.7109 2.83447C55.876 4.02949 55.8512 5.94286 54.6562 7.10791L33.5166 27.7192C32.416 28.7923 30.7027 28.8582 29.5254 27.9194C29.5186 27.914 29.5114 27.9086 29.5049 27.9028L29.3193 27.7397C29.3118 27.7331 29.3041 27.7262 29.2969 27.7192L20.9922 19.6226C20.9854 19.616 20.9791 19.609 20.9727 19.6021L20.8018 19.4175C20.7953 19.4105 20.7893 19.4033 20.7832 19.396C19.7995 18.221 19.8459 16.4698 20.9385 15.3491C21.9628 14.2985 23.5645 14.1528 24.749 14.9243L24.9795 15.0913L25.001 15.1089L25.1895 15.2749L25.2119 15.2944L31.4062 21.3345L50.4375 2.78076Z" fill="#877FD6"/>
<path d="M50.4375 2.78076C51.6325 1.61577 53.5459 1.63968 54.7109 2.83447C55.876 4.02949 55.8512 5.94286 54.6562 7.10791L33.5166 27.7192C32.416 28.7923 30.7027 28.8582 29.5254 27.9194C29.5186 27.914 29.5114 27.9086 29.5049 27.9028L29.3193 27.7397C29.3118 27.7331 29.3041 27.7262 29.2969 27.7192L20.9922 19.6226C20.9854 19.616 20.9791 19.609 20.9727 19.6021L20.8018 19.4175C20.7953 19.4105 20.7893 19.4033 20.7832 19.396C19.7995 18.221 19.8459 16.4698 20.9385 15.3491C21.9628 14.2985 23.5645 14.1528 24.749 14.9243L24.9795 15.0913L25.001 15.1089L25.1895 15.2749L25.2119 15.2944L31.4062 21.3345L50.4375 2.78076Z" fill="url(#paint0_linear_1_90)"/>
<!-- <path d="M50.4375 2.78076C51.6325 1.61577 53.5459 1.63968 54.7109 2.83447C55.876 4.02949 55.8512 5.94286 54.6562 7.10791L33.5166 27.7192C32.416 28.7923 30.7027 28.8582 29.5254 27.9194C29.5186 27.914 29.5114 27.9086 29.5049 27.9028L29.3193 27.7397C29.3118 27.7331 29.3041 27.7262 29.2969 27.7192L20.9922 19.6226C20.9854 19.616 20.9791 19.609 20.9727 19.6021L20.8018 19.4175C20.7953 19.4105 20.7893 19.4033 20.7832 19.396C19.7995 18.221 19.8459 16.4698 20.9385 15.3491C21.9628 14.2985 23.5645 14.1528 24.749 14.9243L24.9795 15.0913L25.001 15.1089L25.1895 15.2749L25.2119 15.2944L31.4062 21.3345L50.4375 2.78076Z" stroke="white" stroke-width="1.13641" stroke-linecap="round" stroke-linejoin="round"/> -->
</g>
<path d="M31.7891 2.29004C32.984 1.12505 34.8974 1.14895 36.0625 2.34375C37.2275 3.53877 37.2027 5.45214 36.0078 6.61719L14.8682 27.2285C13.7675 28.3016 12.0542 28.3675 10.877 27.4287C10.8702 27.4233 10.863 27.4178 10.8564 27.4121L10.6709 27.249C10.6633 27.2424 10.6556 27.2355 10.6484 27.2285L2.34375 19.1318C2.337 19.1252 2.33064 19.1182 2.32422 19.1113L2.15332 18.9268C2.14689 18.9198 2.14084 18.9125 2.13477 18.9053C1.15108 17.7303 1.19749 15.9791 2.29004 14.8584C3.31437 13.8078 4.91603 13.6621 6.10059 14.4336L6.33105 14.6006L6.35254 14.6182L6.54102 14.7842L6.56348 14.8037L12.7578 20.8438L31.7891 2.29004Z" fill="#877FD6"/>
<path d="M31.7891 2.29004C32.984 1.12505 34.8974 1.14895 36.0625 2.34375C37.2275 3.53877 37.2027 5.45214 36.0078 6.61719L14.8682 27.2285C13.7675 28.3016 12.0542 28.3675 10.877 27.4287C10.8702 27.4233 10.863 27.4178 10.8564 27.4121L10.6709 27.249C10.6633 27.2424 10.6556 27.2355 10.6484 27.2285L2.34375 19.1318C2.337 19.1252 2.33064 19.1182 2.32422 19.1113L2.15332 18.9268C2.14689 18.9198 2.14084 18.9125 2.13477 18.9053C1.15108 17.7303 1.19749 15.9791 2.29004 14.8584C3.31437 13.8078 4.91603 13.6621 6.10059 14.4336L6.33105 14.6006L6.35254 14.6182L6.54102 14.7842L6.56348 14.8037L12.7578 20.8438L31.7891 2.29004Z" fill="url(#paint1_linear_1_90)"/>
<!-- <path d="M31.7891 2.29004C32.984 1.12505 34.8974 1.14895 36.0625 2.34375C37.2275 3.53877 37.2027 5.45214 36.0078 6.61719L14.8682 27.2285C13.7675 28.3016 12.0542 28.3675 10.877 27.4287C10.8702 27.4233 10.863 27.4178 10.8564 27.4121L10.6709 27.249C10.6633 27.2424 10.6556 27.2355 10.6484 27.2285L2.34375 19.1318C2.337 19.1252 2.33064 19.1182 2.32422 19.1113L2.15332 18.9268C2.14689 18.9198 2.14084 18.9125 2.13477 18.9053C1.15108 17.7303 1.19749 15.9791 2.29004 14.8584C3.31437 13.8078 4.91603 13.6621 6.10059 14.4336L6.33105 14.6006L6.35254 14.6182L6.54102 14.7842L6.56348 14.8037L12.7578 20.8438L31.7891 2.29004Z" stroke="white" stroke-width="1.13641" stroke-linecap="round" stroke-linejoin="round"/> -->
<defs>
<linearGradient id="paint0_linear_1_90" x1="20.6484" y1="15.25" x2="55.0007" y2="15.25" gradientUnits="userSpaceOnUse">
<stop stop-color="#603FD9"/>
<stop offset="1" stop-color="#E83D72"/>
</linearGradient>
<linearGradient id="paint1_linear_1_90" x1="2" y1="14.7593" x2="36.3522" y2="14.7593" gradientUnits="userSpaceOnUse">
<stop stop-color="#603FD9"/>
<stop offset="1" stop-color="#E83D72"/>
</linearGradient>
</defs>
</svg>
