<svg width="266" height="78" viewBox="0 0 266 78" fill="none" xmlns="http://www.w3.org/2000/svg">
<path d="M255.494 46.8371V26.2021H259.342V46.8371H255.494Z" fill="black"/>
<path d="M235.608 46.8369L244.477 25.8467H244.778L253.677 46.8369H249.588L248.416 43.8467H240.929L239.817 46.8369H235.608ZM244.117 35.35L242.013 40.9751H247.302L245.108 35.35L244.597 33.6921L244.117 35.35Z" fill="black"/>
<path d="M219.195 52.4334L221.63 45.8316L216.009 32.0947H220.188L222.412 38.667L223.374 42.0717L224.336 38.667L226.591 32.0947H230.528L222.893 52.4334H219.195Z" fill="black"/>
<path d="M209.188 47.2226C207.505 47.2226 206.146 46.8774 205.115 46.1866C204.082 45.486 203.33 44.5633 202.86 43.4185C202.389 42.264 202.154 41.0057 202.154 39.6439C202.154 38.2129 202.419 36.9004 202.949 35.7064C203.492 34.5024 204.278 33.5402 205.309 32.8198C206.352 32.0995 207.624 31.7393 209.128 31.7393C211.373 31.7393 212.941 32.3807 213.833 33.6636C214.724 34.9365 215.171 36.7426 215.171 39.0814C215.171 39.2886 215.165 39.5501 215.156 39.8658C215.145 40.1816 215.13 40.4531 215.11 40.68H206.091C206.151 41.8446 206.482 42.7574 207.083 43.4185C207.695 44.0797 208.606 44.4103 209.82 44.4103C210.44 44.4103 211.107 44.2771 211.818 44.0106C212.53 43.7343 213.056 43.4038 213.397 43.0188L214.599 45.8314C214.199 46.0978 213.562 46.3988 212.69 46.7344C211.829 47.0599 210.661 47.2226 209.188 47.2226ZM206.061 38.3709H211.352C211.352 37.3347 211.258 36.5451 211.067 36.0023C210.886 35.4498 210.636 35.0699 210.315 34.8626C209.995 34.6553 209.629 34.5517 209.218 34.5517C208.195 34.5517 207.429 34.9268 206.918 35.6768C206.406 36.4169 206.122 37.315 206.061 38.3709Z" fill="black"/>
<path d="M186.757 46.8369V32.0935H190.246L190.32 34.0327C190.711 33.4406 191.257 32.9126 191.959 32.4488C192.66 31.9751 193.582 31.7383 194.725 31.7383C196.248 31.7383 197.38 32.2119 198.121 33.1594C198.864 34.1067 199.234 35.4192 199.234 37.0969V46.8369H195.386V37.4224C195.386 36.6035 195.211 35.9422 194.86 35.4389C194.508 34.9258 193.973 34.6692 193.251 34.6692C192.55 34.6692 191.934 34.9258 191.403 35.4389C190.872 35.9422 190.606 36.6035 190.606 37.4224V46.8369H186.757Z" fill="black"/>
<path d="M176.859 47.1332C174.654 47.1332 172.95 46.452 171.749 45.0903C170.546 43.7284 169.945 41.8436 169.945 39.4357C169.945 37.008 170.566 35.1182 171.808 33.7662C173.051 32.4143 174.775 31.7383 176.98 31.7383C179.193 31.7383 180.878 32.4389 182.03 33.8403C183.193 35.2317 183.773 37.0968 183.773 39.4357C183.773 41.7744 183.172 43.6446 181.969 45.0458C180.778 46.4373 179.074 47.1332 176.859 47.1332ZM176.919 44.1725C178.823 44.1725 179.775 42.5935 179.775 39.4357C179.775 36.258 178.823 34.6692 176.919 34.6692C175.977 34.6692 175.246 35.0393 174.724 35.7794C174.203 36.5096 173.943 37.7284 173.943 39.4357C173.943 41.1331 174.203 42.3468 174.724 43.0771C175.246 43.8073 175.977 44.1725 176.919 44.1725Z" fill="black"/>
<path d="M149.372 46.8369V25.8467H149.672L158.15 35.6905L166.567 25.8467H166.898V46.8369H163.17V37.9849L163.306 34.4915L162.239 36.0902L158.12 40.8566L154.001 36.0902L152.935 34.4915L153.099 37.9849V46.8369H149.372Z" fill="black"/>
<path d="M138.292 47.2521C137.08 47.2521 136.026 46.9316 135.135 46.2903C134.243 45.6487 133.552 44.7458 133.061 43.5814C132.58 42.4169 132.339 41.055 132.339 39.4958C132.339 37.0682 132.84 35.1685 133.843 33.7968C134.855 32.4251 136.358 31.7392 138.352 31.7392C139.374 31.7392 140.235 31.9909 140.938 32.4942C141.649 32.9876 142.11 33.7031 142.32 34.6405L142.05 32.4793V24.3379H145.598V46.8379H142.32V43.8182C142.05 44.8347 141.573 45.6636 140.893 46.305C140.211 46.9366 139.344 47.2521 138.292 47.2521ZM139.164 44.3215C139.885 44.3215 140.531 43.9515 141.102 43.2112C141.673 42.4613 141.96 41.2425 141.96 39.5551C141.96 38.0155 141.739 36.8265 141.298 35.9876C140.857 35.1488 140.175 34.7294 139.253 34.7294C138.782 34.7294 138.312 34.8725 137.841 35.1587C137.379 35.4449 136.995 35.9383 136.684 36.6389C136.373 37.3298 136.218 38.2819 136.218 39.4958C136.218 41.1241 136.503 42.3379 137.074 43.1373C137.645 43.9267 138.342 44.3215 139.164 44.3215Z" fill="black"/>
<path d="M116.862 46.8369V32.0935H120.349L120.424 34.0327C120.816 33.4406 121.361 32.9126 122.064 32.4488C122.765 31.9751 123.687 31.7383 124.829 31.7383C126.352 31.7383 127.485 32.2119 128.226 33.1594C128.967 34.1067 129.338 35.4192 129.338 37.0969V46.8369H125.49V37.4224C125.49 36.6035 125.315 35.9422 124.963 35.4389C124.613 34.9258 124.077 34.6692 123.355 34.6692C122.654 34.6692 122.038 34.9258 121.506 35.4389C120.976 35.9422 120.711 36.6035 120.711 37.4224V46.8369H116.862Z" fill="black"/>
<path d="M107.873 47.2226C106.19 47.2226 104.832 46.8774 103.8 46.1866C102.767 45.486 102.016 44.5633 101.545 43.4185C101.074 42.264 100.838 41.0057 100.838 39.6439C100.838 38.2129 101.104 36.9004 101.635 35.7064C102.176 34.5024 102.963 33.5402 103.995 32.8198C105.037 32.0995 106.31 31.7393 107.813 31.7393C110.058 31.7393 111.626 32.3807 112.518 33.6636C113.409 34.9365 113.856 36.7426 113.856 39.0814C113.856 39.2886 113.85 39.5501 113.84 39.8658C113.83 40.1816 113.815 40.4531 113.795 40.68H104.777C104.836 41.8446 105.167 42.7574 105.768 43.4185C106.38 44.0797 107.292 44.4103 108.504 44.4103C109.126 44.4103 109.792 44.2771 110.503 44.0106C111.215 43.7343 111.741 43.4038 112.082 43.0188L113.284 45.8314C112.883 46.0978 112.247 46.3988 111.375 46.7344C110.513 47.0599 109.346 47.2226 107.873 47.2226ZM104.747 38.3709H110.037C110.037 37.3347 109.942 36.5451 109.752 36.0023C109.572 35.4498 109.321 35.0699 109 34.8626C108.68 34.6553 108.314 34.5517 107.903 34.5517C106.881 34.5517 106.114 34.9268 105.603 35.6768C105.092 36.4169 104.806 37.315 104.747 38.3709Z" fill="black"/>
<path d="M90.7014 46.8381V32.0946H94.0983L94.2786 34.7C94.4391 34.3151 94.6848 33.9055 95.0152 33.4713C95.3559 33.0371 95.8219 32.672 96.4131 32.3759C97.0146 32.07 97.786 31.917 98.7278 31.917C99.0188 31.917 99.2743 31.9368 99.4947 31.9763C99.7149 32.0158 99.9206 32.0749 100.111 32.1539L99.2691 36.0321C98.9486 35.7164 98.4573 35.5585 97.7959 35.5585C97.0245 35.5585 96.3933 35.7164 95.9019 36.0321C95.4111 36.338 95.0453 36.6835 94.8048 37.0684C94.5741 37.4532 94.4593 37.7493 94.4593 37.9565V46.8381H90.7014Z" fill="black"/>
<path d="M80.2216 46.8371V29.5476H75.3816V26.2021H88.9399V29.5476H84.0994V46.8371H80.2216Z" fill="black"/>
<path d="M53.2047 30.549L46.8793 24.2236L43.7166 27.3863L50.0421 33.7117L53.2047 30.549Z" fill="#231C50"/>
<path d="M34.4176 49.3332L28.0921 43.0078L24.9294 46.1704L31.2548 52.4959L34.4176 49.3332Z" fill="#DF1A6B"/>
<path d="M46.8793 52.4959L53.2047 46.1706L50.0421 43.0078L43.7166 49.3332L46.8793 52.4959Z" fill="#6800B8"/>
<path d="M28.0921 33.7117L34.4176 27.3863L31.2548 24.2236L24.9294 30.549L28.0921 33.7117Z" fill="#FB5B32"/>
<g filter="url(#filter0_d_4052_1336)">
<path d="M39.2454 16.6193V6.33203L53.1109 20.1975V24.223H57.1361L71.0018 38.0884H60.7147L39.2454 16.6193Z" fill="url(#paint0_linear_4052_1336)"/>
</g>
<g filter="url(#filter1_d_4052_1336)">
<path d="M39.2449 60.0041V70.2917L53.1104 56.4261V52.4008H57.1357L71.0013 38.5352H60.7142L39.2449 60.0041Z" fill="url(#paint1_linear_4052_1336)"/>
</g>
<g filter="url(#filter2_d_4052_1336)">
<path d="M38.7955 60.0041V70.2917L24.93 56.4261V52.4008H20.9045L7.03906 38.5352H17.3263L38.7955 60.0041Z" fill="url(#paint2_linear_4052_1336)"/>
</g>
<g filter="url(#filter3_d_4052_1336)">
<path d="M38.7955 16.6193V6.33203L24.93 20.1975V24.223H20.9045L7.03906 38.0884H17.3263L38.7955 16.6193Z" fill="url(#paint3_linear_4052_1336)"/>
</g>
<g filter="url(#filter4_d_4052_1336)">
<path d="M54.6027 38.3322L39.0214 22.751L23.4402 38.3322L39.0215 53.9135L54.6027 38.3322Z" fill="#F3F1FF"/>
</g>
<path d="M42.7014 44.0706V31.3652H45.0347V44.0706H42.7014Z" fill="#231C50"/>
<path d="M30.6431 44.0735L36.0205 31.1494H36.2028L41.5984 44.0735H39.1194L38.4085 42.2323H33.8695L33.1951 44.0735H30.6431ZM35.8018 37.0007L34.5258 40.4642H37.734L36.4033 37.0007L36.0934 35.9799L35.8018 37.0007Z" fill="#231C50"/>
<defs>
<filter id="filter0_d_4052_1336" x="34.0113" y="2.84266" width="38.7351" height="38.7356" filterUnits="userSpaceOnUse" color-interpolation-filters="sRGB">
<feFlood flood-opacity="0" result="BackgroundImageFix"/>
<feColorMatrix in="SourceAlpha" type="matrix" values="0 0 0 0 0 0 0 0 0 0 0 0 0 0 0 0 0 0 127 0" result="hardAlpha"/>
<feOffset dx="-1.74469"/>
<feGaussianBlur stdDeviation="1.74469"/>
<feComposite in2="hardAlpha" operator="out"/>
<feColorMatrix type="matrix" values="0 0 0 0 0.137255 0 0 0 0 0.109804 0 0 0 0 0.313726 0 0 0 0.5 0"/>
<feBlend mode="normal" in2="BackgroundImageFix" result="effect1_dropShadow_4052_1336"/>
<feBlend mode="normal" in="SourceGraphic" in2="effect1_dropShadow_4052_1336" result="shape"/>
</filter>
<filter id="filter1_d_4052_1336" x="35.7555" y="33.3011" width="38.7351" height="38.7356" filterUnits="userSpaceOnUse" color-interpolation-filters="sRGB">
<feFlood flood-opacity="0" result="BackgroundImageFix"/>
<feColorMatrix in="SourceAlpha" type="matrix" values="0 0 0 0 0 0 0 0 0 0 0 0 0 0 0 0 0 0 127 0" result="hardAlpha"/>
<feOffset dy="-1.74469"/>
<feGaussianBlur stdDeviation="1.74469"/>
<feComposite in2="hardAlpha" operator="out"/>
<feColorMatrix type="matrix" values="0 0 0 0 0.137255 0 0 0 0 0.109804 0 0 0 0 0.313726 0 0 0 0.5 0"/>
<feBlend mode="normal" in2="BackgroundImageFix" result="effect1_dropShadow_4052_1336"/>
<feBlend mode="normal" in="SourceGraphic" in2="effect1_dropShadow_4052_1336" result="shape"/>
</filter>
<filter id="filter2_d_4052_1336" x="3.54969" y="33.3011" width="38.7353" height="38.7356" filterUnits="userSpaceOnUse" color-interpolation-filters="sRGB">
<feFlood flood-opacity="0" result="BackgroundImageFix"/>
<feColorMatrix in="SourceAlpha" type="matrix" values="0 0 0 0 0 0 0 0 0 0 0 0 0 0 0 0 0 0 127 0" result="hardAlpha"/>
<feOffset dy="-1.74469"/>
<feGaussianBlur stdDeviation="1.74469"/>
<feComposite in2="hardAlpha" operator="out"/>
<feColorMatrix type="matrix" values="0 0 0 0 0.137255 0 0 0 0 0.109804 0 0 0 0 0.313726 0 0 0 0.5 0"/>
<feBlend mode="normal" in2="BackgroundImageFix" result="effect1_dropShadow_4052_1336"/>
<feBlend mode="normal" in="SourceGraphic" in2="effect1_dropShadow_4052_1336" result="shape"/>
</filter>
<filter id="filter3_d_4052_1336" x="5.29438" y="2.84266" width="38.7353" height="38.7356" filterUnits="userSpaceOnUse" color-interpolation-filters="sRGB">
<feFlood flood-opacity="0" result="BackgroundImageFix"/>
<feColorMatrix in="SourceAlpha" type="matrix" values="0 0 0 0 0 0 0 0 0 0 0 0 0 0 0 0 0 0 127 0" result="hardAlpha"/>
<feOffset dx="1.74469"/>
<feGaussianBlur stdDeviation="1.74469"/>
<feComposite in2="hardAlpha" operator="out"/>
<feColorMatrix type="matrix" values="0 0 0 0 0.137255 0 0 0 0 0.109804 0 0 0 0 0.313726 0 0 0 0.5 0"/>
<feBlend mode="normal" in2="BackgroundImageFix" result="effect1_dropShadow_4052_1336"/>
<feBlend mode="normal" in="SourceGraphic" in2="effect1_dropShadow_4052_1336" result="shape"/>
</filter>
<filter id="filter4_d_4052_1336" x="19.9508" y="19.2616" width="38.1413" height="38.1409" filterUnits="userSpaceOnUse" color-interpolation-filters="sRGB">
<feFlood flood-opacity="0" result="BackgroundImageFix"/>
<feColorMatrix in="SourceAlpha" type="matrix" values="0 0 0 0 0 0 0 0 0 0 0 0 0 0 0 0 0 0 127 0" result="hardAlpha"/>
<feOffset/>
<feGaussianBlur stdDeviation="1.74469"/>
<feComposite in2="hardAlpha" operator="out"/>
<feColorMatrix type="matrix" values="0 0 0 0 0.137255 0 0 0 0 0.109804 0 0 0 0 0.313726 0 0 0 1 0"/>
<feBlend mode="normal" in2="BackgroundImageFix" result="effect1_dropShadow_4052_1336"/>
<feBlend mode="normal" in="SourceGraphic" in2="effect1_dropShadow_4052_1336" result="shape"/>
</filter>
<linearGradient id="paint0_linear_4052_1336" x1="39.2454" y1="12.1466" x2="66.529" y2="38.5358" gradientUnits="userSpaceOnUse">
<stop stop-color="#6800B8"/>
<stop offset="1" stop-color="#20DCDC"/>
</linearGradient>
<linearGradient id="paint1_linear_4052_1336" x1="37.903" y1="64.4769" x2="65.6342" y2="38.5352" gradientUnits="userSpaceOnUse">
<stop stop-color="#FB1D75"/>
<stop offset="1" stop-color="#20DCDC"/>
</linearGradient>
<linearGradient id="paint2_linear_4052_1336" x1="12.8536" y1="39.877" x2="36.1118" y2="63.135" gradientUnits="userSpaceOnUse">
<stop stop-color="#FA9911"/>
<stop offset="0.5" stop-color="#FB5B32"/>
<stop offset="1" stop-color="#DF1A6B"/>
</linearGradient>
<linearGradient id="paint3_linear_4052_1336" x1="38.3482" y1="12.1466" x2="13.3009" y2="38.5358" gradientUnits="userSpaceOnUse">
<stop stop-color="#6800B8"/>
<stop offset="0.5" stop-color="#FB5B32"/>
<stop offset="1" stop-color="#FA9911"/>
</linearGradient>
</defs>
</svg>
