<svg width="300" height="160" viewBox="0 0 300 160" fill="none" xmlns="http://www.w3.org/2000/svg">
<rect width="300" height="160" rx="16" fill="white"/>
<path d="M67.2881 67.2812C62.6373 72.159 59.7823 78.7644 59.7822 86.0361C59.7822 101.048 71.9519 113.218 86.9639 113.218C89.3842 113.218 91.7304 112.899 93.9639 112.306L93.6904 114.213C91.5317 114.726 89.2797 115.001 86.9639 115.001C70.9675 115.001 58 102.032 58 86.0361C58.0001 76.8245 62.3004 68.6174 69.0029 63.3125L67.2881 67.2812ZM93.208 57.749C106.203 60.6044 115.929 72.1836 115.929 86.0361C115.929 96.337 110.55 105.381 102.449 110.516L104.187 107.064C110.266 102.08 114.146 94.5114 114.146 86.0361C114.145 72.9773 104.936 62.0714 92.6582 59.4541L93.208 57.749Z" fill="url(#paint0_linear_4052_1365)"/>
<path d="M99.7149 38C70.3051 55.6904 62.0169 85.4121 67.3641 85.4121C69.5032 81.3125 75.474 81.7136 77.6574 84.8328C79.8409 87.952 75.2957 96.3293 80.1528 98.8693C85.0099 101.409 89.6887 96.0174 94.5903 98.8693C98.5116 101.151 97.5907 109.534 96.6401 113.44C99.6108 109.653 105.151 99.8139 103.547 90.7593C101.943 81.7047 99.1355 79.8866 103.547 74.272C96.2836 72.757 97.0411 81.7581 93.209 85.2338C88.8239 89.211 80.331 90.8039 85.099 79.0845C84.6534 63.7558 88.9312 52.6158 99.7149 38Z" fill="url(#paint1_linear_4052_1365)"/>
<path d="M128.083 86.8438V56.6938H134.707V86.8438H128.083ZM132.651 86.8438V81.499H151.335V86.8438H132.651ZM132.651 74.0528V69.1649H149.051V74.0528H132.651ZM132.651 61.9928V56.6938H151.243V61.9928H132.651ZM162.498 87.4833C160.488 87.4833 158.722 86.9656 157.199 85.9301C155.707 84.8947 154.55 83.4328 153.727 81.5447C152.905 79.6565 152.494 77.4181 152.494 74.8294C152.494 72.3931 152.859 70.2308 153.59 68.3426C154.321 66.4544 155.402 64.9774 156.834 63.9115C158.265 62.8456 160.047 62.3126 162.179 62.3126C163.732 62.3126 165.041 62.6019 166.107 63.1806C167.173 63.7592 168.041 64.6119 168.711 65.7388C169.412 66.8351 169.96 68.1599 170.356 69.7131H171.406C171.193 68.7385 170.995 67.7944 170.812 66.8808C170.66 65.9367 170.538 65.0383 170.447 64.1856C170.356 63.3328 170.31 62.5867 170.31 61.9472V54.1813H176.888V75.0578V86.8438H171.406V79.9001H170.493C170.158 81.6056 169.64 83.0217 168.939 84.1485C168.239 85.2753 167.341 86.1128 166.244 86.661C165.178 87.2092 163.93 87.4833 162.498 87.4833ZM164.691 82.0928C165.696 82.0928 166.549 81.8797 167.249 81.4533C167.95 81.0269 168.528 80.4788 168.985 79.8088C169.442 79.1083 169.777 78.3622 169.99 77.5703C170.203 76.7481 170.31 75.9867 170.31 75.2863V74.4183C170.31 73.8397 170.219 73.2458 170.036 72.6367C169.884 71.9972 169.655 71.3728 169.351 70.7638C169.046 70.1547 168.665 69.6217 168.209 69.1649C167.752 68.6776 167.219 68.2969 166.61 68.0228C166.001 67.7488 165.331 67.6117 164.6 67.6117C163.503 67.6117 162.574 67.9163 161.813 68.5253C161.052 69.1344 160.458 69.9872 160.032 71.0835C159.605 72.1494 159.392 73.3981 159.392 74.8294C159.392 76.2913 159.605 77.5703 160.032 78.6667C160.488 79.7631 161.113 80.6158 161.904 81.2249C162.696 81.8035 163.625 82.0928 164.691 82.0928ZM189.253 87.4833C186.451 87.4833 184.334 86.5392 182.903 84.651C181.502 82.7324 180.802 79.824 180.802 75.9258V62.8608H187.38V75.1035C187.38 77.4485 187.73 79.1997 188.431 80.3569C189.131 81.4838 190.197 82.0472 191.628 82.0472C192.481 82.0472 193.227 81.834 193.867 81.4076C194.506 80.9813 195.054 80.3874 195.511 79.626C195.968 78.8647 196.303 77.9663 196.516 76.9308C196.76 75.8953 196.897 74.7838 196.927 73.596V62.8608H203.506V77.0678V86.8438H198.207L198.161 79.3519H197.339C196.882 81.2401 196.303 82.7933 195.603 84.0115C194.933 85.1992 194.065 86.0824 192.999 86.661C191.963 87.2092 190.715 87.4833 189.253 87.4833Z" fill="#6800B8"/>
<path d="M128.891 112.17V96.3061H134.107L138.529 108.252H138.65L142.976 96.3061H147.951V112.17H144.659L144.875 99.8154H144.61L139.803 112.17H136.919L132.184 99.8154H131.919L132.136 112.17H128.891ZM149.188 112.17L154.62 96.3061H159.668L165.1 112.17H161.35L157.336 99.0462H156.976L152.938 112.17H149.188ZM152.241 109.045V106.69H162.552V109.045H152.241ZM166.332 112.17V96.3061H169.817V112.17H166.332ZM168.735 112.17V109.358H178.566V112.17H168.735ZM168.735 105.44V102.868H177.364V105.44H168.735ZM168.735 99.0943V96.3061H178.518V99.0943H168.735ZM186.405 112.506C185.363 112.506 184.426 112.402 183.593 112.194C182.775 112.002 182.07 111.705 181.477 111.305C180.9 110.888 180.444 110.375 180.107 109.766C179.787 109.141 179.603 108.428 179.554 107.627L182.583 106.642C182.615 107.363 182.791 107.964 183.112 108.444C183.448 108.925 183.921 109.278 184.53 109.502C185.139 109.726 185.82 109.838 186.573 109.838C187.294 109.838 187.903 109.75 188.4 109.574C188.896 109.398 189.273 109.165 189.529 108.877C189.786 108.573 189.914 108.244 189.914 107.891C189.914 107.475 189.754 107.138 189.433 106.882C189.113 106.626 188.672 106.409 188.111 106.233C187.566 106.057 186.942 105.888 186.236 105.728C185.451 105.552 184.674 105.352 183.905 105.127C183.152 104.903 182.463 104.615 181.838 104.262C181.229 103.91 180.74 103.453 180.372 102.892C180.019 102.331 179.843 101.626 179.843 100.777C179.843 99.7993 180.083 98.9581 180.564 98.253C181.061 97.5319 181.782 96.9711 182.727 96.5705C183.673 96.1699 184.81 95.9696 186.14 95.9696C187.486 95.9696 188.632 96.1699 189.578 96.5705C190.539 96.9551 191.284 97.5079 191.813 98.229C192.342 98.934 192.63 99.7753 192.678 100.753L189.553 101.618C189.553 101.121 189.473 100.689 189.313 100.32C189.153 99.9516 188.929 99.6471 188.64 99.4068C188.352 99.1504 187.991 98.9581 187.558 98.8299C187.142 98.7017 186.661 98.6376 186.116 98.6376C185.491 98.6376 184.947 98.7177 184.482 98.878C184.033 99.0382 183.689 99.2545 183.448 99.5269C183.224 99.7993 183.112 100.12 183.112 100.488C183.112 100.921 183.288 101.282 183.641 101.57C184.009 101.842 184.49 102.067 185.083 102.243C185.692 102.419 186.357 102.588 187.078 102.748C187.767 102.892 188.464 103.076 189.169 103.301C189.89 103.509 190.555 103.789 191.164 104.142C191.789 104.478 192.286 104.943 192.654 105.536C193.039 106.113 193.231 106.842 193.231 107.723C193.231 108.685 192.975 109.526 192.462 110.247C191.949 110.968 191.18 111.529 190.154 111.93C189.145 112.314 187.895 112.506 186.405 112.506ZM198.242 112.17V96.3061H201.703V112.17H198.242ZM193.555 99.2145V96.3061H206.39V99.2145H193.555ZM207.647 112.17V96.3061H214.088C214.954 96.3061 215.739 96.3782 216.444 96.5224C217.149 96.6506 217.774 96.8429 218.319 97.0993C218.863 97.3557 219.32 97.6762 219.689 98.0607C220.073 98.4293 220.362 98.8619 220.554 99.3587C220.746 99.8394 220.842 100.376 220.842 100.969C220.842 101.53 220.754 102.043 220.578 102.507C220.402 102.956 220.137 103.349 219.785 103.685C219.432 104.022 218.992 104.302 218.463 104.526C217.934 104.735 217.317 104.879 216.612 104.959V105.32C217.429 105.4 218.078 105.592 218.559 105.896C219.056 106.185 219.44 106.578 219.713 107.074C220.001 107.571 220.25 108.188 220.458 108.925L221.419 112.17H217.598L216.852 109.165C216.708 108.524 216.5 108.028 216.228 107.675C215.955 107.307 215.611 107.05 215.194 106.906C214.777 106.746 214.273 106.666 213.68 106.666H211.108V112.17H207.647ZM211.108 104.07H213.848C214.938 104.07 215.779 103.861 216.372 103.445C216.965 103.028 217.261 102.379 217.261 101.498C217.261 100.633 216.981 99.9996 216.42 99.599C215.875 99.1824 215.05 98.9741 213.944 98.9741H211.108V104.07ZM229.873 112.506C228.719 112.506 227.686 112.33 226.772 111.978C225.859 111.609 225.074 111.08 224.417 110.391C223.776 109.686 223.279 108.829 222.927 107.819C222.59 106.794 222.422 105.624 222.422 104.31C222.422 102.435 222.75 100.889 223.407 99.6711C224.064 98.4373 224.962 97.5159 226.099 96.907C227.253 96.2821 228.551 95.9696 229.993 95.9696C231.115 95.9696 232.132 96.1539 233.046 96.5224C233.959 96.875 234.736 97.4037 235.377 98.1088C236.034 98.7978 236.539 99.6631 236.892 100.705C237.244 101.73 237.42 102.908 237.42 104.238C237.42 105.6 237.244 106.794 236.892 107.819C236.539 108.845 236.026 109.71 235.353 110.415C234.696 111.104 233.903 111.625 232.974 111.978C232.044 112.33 231.011 112.506 229.873 112.506ZM229.969 109.742C230.819 109.742 231.532 109.534 232.108 109.117C232.685 108.701 233.126 108.1 233.43 107.315C233.735 106.529 233.887 105.568 233.887 104.43C233.887 103.245 233.727 102.235 233.406 101.402C233.102 100.568 232.653 99.9355 232.06 99.5029C231.467 99.0542 230.746 98.8299 229.897 98.8299C229.064 98.8299 228.351 99.0462 227.758 99.4789C227.181 99.8955 226.732 100.504 226.412 101.306C226.107 102.107 225.955 103.1 225.955 104.286C225.955 105.151 226.043 105.929 226.22 106.618C226.412 107.291 226.676 107.859 227.013 108.324C227.349 108.789 227.766 109.141 228.263 109.382C228.759 109.622 229.328 109.742 229.969 109.742ZM245.513 112.506C244.471 112.506 243.534 112.402 242.701 112.194C241.883 112.002 241.178 111.705 240.585 111.305C240.009 110.888 239.552 110.375 239.215 109.766C238.895 109.141 238.711 108.428 238.663 107.627L241.691 106.642C241.723 107.363 241.899 107.964 242.22 108.444C242.556 108.925 243.029 109.278 243.638 109.502C244.247 109.726 244.928 109.838 245.681 109.838C246.402 109.838 247.011 109.75 247.508 109.574C248.005 109.398 248.381 109.165 248.638 108.877C248.894 108.573 249.022 108.244 249.022 107.891C249.022 107.475 248.862 107.138 248.541 106.882C248.221 106.626 247.78 106.409 247.219 106.233C246.675 106.057 246.05 105.888 245.345 105.728C244.559 105.552 243.782 105.352 243.013 105.127C242.26 104.903 241.571 104.615 240.946 104.262C240.337 103.91 239.848 103.453 239.48 102.892C239.127 102.331 238.951 101.626 238.951 100.777C238.951 99.7993 239.191 98.9581 239.672 98.253C240.169 97.5319 240.89 96.9711 241.835 96.5705C242.781 96.1699 243.918 95.9696 245.248 95.9696C246.595 95.9696 247.74 96.1699 248.686 96.5705C249.647 96.9551 250.392 97.5079 250.921 98.229C251.45 98.934 251.738 99.7753 251.786 100.753L248.662 101.618C248.662 101.121 248.582 100.689 248.421 100.32C248.261 99.9516 248.037 99.6471 247.748 99.4068C247.46 99.1504 247.099 98.9581 246.667 98.8299C246.25 98.7017 245.769 98.6376 245.224 98.6376C244.6 98.6376 244.055 98.7177 243.59 98.878C243.141 99.0382 242.797 99.2545 242.556 99.5269C242.332 99.7993 242.22 100.12 242.22 100.488C242.22 100.921 242.396 101.282 242.749 101.57C243.117 101.842 243.598 102.067 244.191 102.243C244.8 102.419 245.465 102.588 246.186 102.748C246.875 102.892 247.572 103.076 248.277 103.301C248.998 103.509 249.663 103.789 250.272 104.142C250.897 104.478 251.394 104.943 251.762 105.536C252.147 106.113 252.339 106.842 252.339 107.723C252.339 108.685 252.083 109.526 251.57 110.247C251.057 110.968 250.288 111.529 249.263 111.93C248.253 112.314 247.003 112.506 245.513 112.506Z" fill="#6800B8"/>
<defs>
<linearGradient id="paint0_linear_4052_1365" x1="115.929" y1="86.0371" x2="58" y2="86.0371" gradientUnits="userSpaceOnUse">
<stop stop-color="#B026D4"/>
<stop offset="1" stop-color="#FA5A39"/>
</linearGradient>
<linearGradient id="paint1_linear_4052_1365" x1="65.8438" y1="75.7202" x2="103.833" y2="75.7202" gradientUnits="userSpaceOnUse">
<stop stop-color="#FF5D30"/>
<stop offset="1" stop-color="#AE25D8"/>
</linearGradient>
</defs>
</svg>
