<svg width="13" height="13" viewBox="0 0 13 13" fill="none" xmlns="http://www.w3.org/2000/svg">
<g clip-path="url(#clip0_4052_1468)">
<path d="M9.30908 0.474915C10.8036 0.474915 12.0151 1.68648 12.0151 3.18097V9.64874C12.0151 11.1432 10.8036 12.3548 9.30908 12.3548H2.84131C1.34682 12.3548 0.135254 11.1432 0.135254 9.64874V3.18097C0.135254 1.68648 1.34682 0.474915 2.84131 0.474915H9.30908Z" fill="#DFEDF5"/>
<path d="M9.30908 0.474915C10.8036 0.474915 12.0151 1.68648 12.0151 3.18097V9.64874C12.0151 11.1432 10.8036 12.3548 9.30908 12.3548H2.84131C1.34682 12.3548 0.135254 11.1432 0.135254 9.64874V3.18097C0.135254 1.68648 1.34682 0.474915 2.84131 0.474915H9.30908Z" fill="white"/>
<path d="M3.46753 4.7005H4.85886V10.6868H3.46753V4.7005Z" fill="black"/>
<path d="M7.05489 2.73914C8.24989 2.73914 9.22204 3.77257 9.22204 5.04282C9.22204 6.26418 8.30466 7.28326 7.16475 7.34415L9.42827 10.6868H7.77518L5.51691 7.35326C5.50635 7.33771 5.50074 7.31925 5.50074 7.29991V6.16372C5.50074 6.11343 5.53921 6.07257 5.58646 6.07257H6.91748C7.17873 6.07257 7.4235 5.96312 7.60668 5.76452C7.7898 5.56598 7.88794 5.30341 7.883 5.02521C7.87308 4.46961 7.42512 4.01754 6.88432 4.01754H3.46753V2.73914H7.05489Z" fill="black"/>
</g>
<defs>
<clipPath id="clip0_4052_1468">
<rect width="11.8801" height="11.8801" fill="white" transform="translate(0.135254 0.474915)"/>
</clipPath>
</defs>
</svg>
