<svg width="209" height="82" viewBox="0 0 209 82" fill="none" xmlns="http://www.w3.org/2000/svg">
<path d="M9.97095 31.1816C5.01751 36.3763 1.97681 43.4108 1.97681 51.1553C1.97687 67.142 14.9364 80.1015 30.9231 80.1016C33.5012 80.1016 36.0001 79.7623 38.3792 79.1299L38.0872 81.1611C35.788 81.708 33.3896 82 30.9231 82C13.888 81.9999 0.0784323 68.1903 0.0783691 51.1553C0.0783691 41.3444 4.65902 32.6035 11.7981 26.9541L9.97095 31.1816ZM37.5745 21.0312C51.4123 24.0728 61.7678 36.4038 61.7678 51.1553C61.7678 62.124 56.0416 71.7539 47.4163 77.2227L49.2659 73.5479C55.739 68.2392 59.8703 60.1801 59.8704 51.1553C59.8704 37.2489 50.0633 25.6345 36.9885 22.8467L37.5745 21.0312Z" fill="url(#paint0_linear_4052_1168)"/>
<path d="M44.5031 0C13.1837 18.8391 4.35731 50.4906 10.0517 50.4906C12.3296 46.1249 18.6882 46.552 21.0134 49.8737C23.3386 53.1955 18.4983 62.1168 23.6708 64.8216C28.8432 67.5265 33.8259 61.7846 39.0458 64.8216C43.2217 67.2513 42.241 76.1789 41.2286 80.339C44.3922 76.3054 50.2923 65.8276 48.5839 56.1851C46.8756 46.5425 43.886 44.6064 48.5839 38.6272C40.849 37.0138 41.6557 46.5994 37.5747 50.3008C32.9049 54.5362 23.8606 56.2325 28.9381 43.7522C28.4636 27.4282 33.0191 15.5648 44.5031 0Z" fill="url(#paint1_linear_4052_1168)"/>
<path d="M74.7141 51.9375V19.8298H81.7681V51.9375H74.7141ZM79.5789 51.9375V46.2457H99.476V51.9375H79.5789ZM79.5789 38.3161V33.1107H97.0436V38.3161H79.5789ZM79.5789 25.473V19.8298H99.3787V25.473H79.5789ZM111.364 52.6186C109.224 52.6186 107.343 52.0672 105.721 50.9645C104.132 49.8619 102.9 48.3051 102.024 46.2943C101.148 44.2835 100.71 41.8998 100.71 39.1431C100.71 36.5485 101.1 34.2458 101.878 32.2351C102.656 30.2243 103.808 28.6513 105.332 27.5162C106.856 26.3811 108.754 25.8135 111.024 25.8135C112.678 25.8135 114.072 26.1216 115.208 26.7378C116.343 27.354 117.267 28.2621 117.98 29.4621C118.726 30.6297 119.31 32.0405 119.732 33.6945H120.851C120.624 32.6567 120.413 31.6513 120.218 30.6783C120.056 29.6729 119.926 28.7162 119.829 27.8081C119.732 26.9 119.683 26.1054 119.683 25.4243V17.1542H126.688V39.3863V51.9375H120.851V44.543H119.878C119.521 46.3592 118.97 47.8673 118.224 49.0673C117.478 50.2673 116.521 51.1591 115.353 51.7429C114.218 52.3267 112.889 52.6186 111.364 52.6186ZM113.699 46.8781C114.77 46.8781 115.678 46.6511 116.424 46.197C117.17 45.743 117.786 45.1592 118.272 44.4457C118.759 43.6998 119.116 42.9052 119.343 42.062C119.57 41.1863 119.683 40.3755 119.683 39.6296V38.7052C119.683 38.089 119.586 37.4566 119.391 36.808C119.229 36.1269 118.986 35.462 118.662 34.8134C118.337 34.1648 117.932 33.5972 117.445 33.1107C116.959 32.5918 116.391 32.1864 115.743 31.8945C115.094 31.6026 114.381 31.4567 113.602 31.4567C112.435 31.4567 111.445 31.781 110.635 32.4297C109.824 33.0783 109.191 33.9864 108.737 35.1539C108.283 36.2891 108.056 37.6188 108.056 39.1431C108.056 40.6998 108.283 42.062 108.737 43.2295C109.224 44.3971 109.889 45.3052 110.732 45.9538C111.575 46.57 112.564 46.8781 113.699 46.8781ZM139.856 52.6186C136.872 52.6186 134.618 51.6132 133.094 49.6024C131.602 47.5592 130.856 44.4619 130.856 40.3106V26.3973H137.862V39.435C137.862 41.9322 138.234 43.7971 138.98 45.0295C139.726 46.2295 140.861 46.8295 142.386 46.8295C143.294 46.8295 144.088 46.6024 144.77 46.1484C145.451 45.6943 146.034 45.0619 146.521 44.2511C147.007 43.4403 147.364 42.4836 147.591 41.3809C147.851 40.2782 147.997 39.0944 148.029 37.8296V26.3973H155.034V41.5268V51.9375H149.391L149.342 43.9592H148.467C147.98 45.97 147.364 47.624 146.618 48.9213C145.905 50.1862 144.98 51.1267 143.845 51.7429C142.743 52.3267 141.413 52.6186 139.856 52.6186Z" fill="#6800B8"/>
<path d="M75.5751 78.9463V62.0524H81.1296L85.8394 74.774H85.9674L90.5748 62.0524H95.8734V78.9463H92.3666L92.597 65.7895H92.3154L87.1961 78.9463H84.1244L79.0819 65.7895H78.8003L79.0307 78.9463H75.5751ZM97.1904 78.9463L102.975 62.0524H108.351L114.135 78.9463H110.142L105.868 64.9704H105.484L101.184 78.9463H97.1904ZM100.441 75.6187V73.1102H111.422V75.6187H100.441ZM115.447 78.9463V62.0524H119.159V78.9463H115.447ZM118.007 78.9463V75.9515H128.476V78.9463H118.007ZM118.007 71.7792V69.0403H127.196V71.7792H118.007ZM118.007 65.0216V62.0524H128.425V65.0216H118.007ZM136.823 79.3046C135.714 79.3046 134.716 79.1937 133.829 78.9719C132.958 78.7671 132.207 78.4514 131.576 78.0248C130.962 77.5811 130.475 77.0351 130.117 76.3866C129.776 75.7211 129.58 74.9617 129.528 74.1085L132.754 73.059C132.788 73.8269 132.975 74.4668 133.317 74.9788C133.675 75.4907 134.178 75.8661 134.827 76.105C135.475 76.3439 136.201 76.4634 137.003 76.4634C137.771 76.4634 138.419 76.3695 138.948 76.1818C139.477 75.9941 139.878 75.7467 140.151 75.4395C140.424 75.1153 140.561 74.7655 140.561 74.3901C140.561 73.9464 140.39 73.588 140.049 73.315C139.707 73.042 139.238 72.8116 138.641 72.6239C138.061 72.4362 137.395 72.257 136.644 72.0863C135.808 71.8986 134.98 71.6853 134.161 71.4464C133.359 71.2075 132.626 70.9004 131.96 70.5249C131.312 70.1495 130.791 69.6632 130.399 69.0659C130.023 68.4687 129.836 67.7178 129.836 66.8134C129.836 65.7725 130.091 64.8766 130.603 64.1257C131.132 63.3578 131.9 62.7606 132.907 62.334C133.914 61.9074 135.126 61.694 136.542 61.694C137.975 61.694 139.195 61.9074 140.202 62.334C141.226 62.7435 142.02 63.3322 142.583 64.1001C143.146 64.851 143.453 65.7469 143.504 66.7878L140.177 67.7093C140.177 67.1803 140.091 66.7195 139.921 66.3271C139.75 65.9346 139.511 65.6104 139.204 65.3544C138.897 65.0814 138.513 64.8766 138.052 64.7401C137.608 64.6035 137.096 64.5353 136.516 64.5353C135.851 64.5353 135.271 64.6206 134.776 64.7913C134.298 64.9619 133.931 65.1923 133.675 65.4824C133.436 65.7725 133.317 66.1138 133.317 66.5062C133.317 66.967 133.504 67.3509 133.88 67.6581C134.272 67.9482 134.784 68.1871 135.416 68.3748C136.064 68.5625 136.772 68.7417 137.54 68.9123C138.274 69.0659 139.016 69.2622 139.767 69.5011C140.535 69.7229 141.243 70.0215 141.892 70.397C142.557 70.7553 143.086 71.2502 143.479 71.8816C143.888 72.4959 144.093 73.2723 144.093 74.2109C144.093 75.2348 143.82 76.1306 143.274 76.8985C142.728 77.6664 141.909 78.2637 140.817 78.6903C139.741 79.0999 138.41 79.3046 136.823 79.3046ZM149.429 78.9463V62.0524H153.115V78.9463H149.429ZM144.438 65.1496V62.0524H158.106V65.1496H144.438ZM159.445 78.9463V62.0524H166.305C167.226 62.0524 168.062 62.1292 168.813 62.2828C169.564 62.4193 170.229 62.6241 170.81 62.8971C171.39 63.1701 171.876 63.5114 172.269 63.921C172.678 64.3135 172.985 64.7742 173.19 65.3032C173.395 65.8151 173.497 66.3868 173.497 67.0182C173.497 67.6154 173.403 68.1615 173.216 68.6564C173.028 69.1342 172.746 69.5523 172.371 69.9106C171.996 70.269 171.526 70.5676 170.963 70.8065C170.4 71.0283 169.743 71.1819 168.992 71.2672V71.6512C169.863 71.7365 170.554 71.9413 171.066 72.2655C171.595 72.5727 172.004 72.9908 172.294 73.5198C172.601 74.0488 172.866 74.7058 173.088 75.4907L174.112 78.9463H170.042L169.248 75.7467C169.095 75.0641 168.873 74.5351 168.583 74.1597C168.293 73.7672 167.926 73.4942 167.482 73.3406C167.038 73.1699 166.501 73.0846 165.869 73.0846H163.131V78.9463H159.445ZM163.131 70.3202H166.049C167.209 70.3202 168.105 70.0983 168.736 69.6546C169.368 69.211 169.683 68.5199 169.683 67.5813C169.683 66.6598 169.385 65.9858 168.787 65.5592C168.207 65.1155 167.328 64.8936 166.151 64.8936H163.131V70.3202ZM183.114 79.3046C181.886 79.3046 180.785 79.1169 179.812 78.7415C178.84 78.349 178.003 77.7859 177.304 77.0521C176.621 76.3013 176.092 75.3883 175.717 74.3133C175.358 73.2211 175.179 71.9754 175.179 70.5761C175.179 68.5796 175.529 66.9329 176.229 65.636C176.928 64.322 177.884 63.3408 179.096 62.6923C180.324 62.0268 181.706 61.694 183.242 61.694C184.437 61.694 185.52 61.8903 186.493 62.2828C187.466 62.6582 188.293 63.2213 188.976 63.9722C189.676 64.7059 190.213 65.6274 190.589 66.7366C190.964 67.8287 191.152 69.083 191.152 70.4993C191.152 71.9498 190.964 73.2211 190.589 74.3133C190.213 75.4054 189.667 76.3269 188.95 77.0777C188.251 77.8115 187.406 78.3661 186.416 78.7415C185.427 79.1169 184.326 79.3046 183.114 79.3046ZM183.217 76.361C184.121 76.361 184.88 76.1392 185.495 75.6955C186.109 75.2518 186.578 74.6119 186.903 73.7757C187.227 72.9396 187.389 71.9157 187.389 70.7041C187.389 69.4413 187.218 68.3663 186.877 67.4789C186.553 66.5916 186.075 65.9175 185.444 65.4568C184.812 64.979 184.044 64.7401 183.14 64.7401C182.253 64.7401 181.493 64.9704 180.862 65.4312C180.247 65.8749 179.77 66.5233 179.428 67.3765C179.104 68.2298 178.942 69.2878 178.942 70.5505C178.942 71.472 179.036 72.2997 179.224 73.0334C179.428 73.7501 179.71 74.3559 180.068 74.8508C180.427 75.3457 180.87 75.7211 181.399 75.9771C181.928 76.233 182.534 76.361 183.217 76.361ZM199.77 79.3046C198.66 79.3046 197.662 79.1937 196.775 78.9719C195.904 78.7671 195.154 78.4514 194.522 78.0248C193.908 77.5811 193.422 77.0351 193.063 76.3866C192.722 75.7211 192.526 74.9617 192.475 74.1085L195.7 73.059C195.734 73.8269 195.922 74.4668 196.263 74.9788C196.621 75.4907 197.125 75.8661 197.773 76.105C198.421 76.3439 199.147 76.4634 199.949 76.4634C200.717 76.4634 201.365 76.3695 201.894 76.1818C202.423 75.9941 202.824 75.7467 203.097 75.4395C203.37 75.1153 203.507 74.7655 203.507 74.3901C203.507 73.9464 203.336 73.588 202.995 73.315C202.653 73.042 202.184 72.8116 201.587 72.6239C201.007 72.4362 200.341 72.257 199.59 72.0863C198.754 71.8986 197.927 71.6853 197.108 71.4464C196.305 71.2075 195.572 70.9004 194.906 70.5249C194.258 70.1495 193.737 69.6632 193.345 69.0659C192.969 68.4687 192.782 67.7178 192.782 66.8134C192.782 65.7725 193.038 64.8766 193.55 64.1257C194.079 63.3578 194.846 62.7606 195.853 62.334C196.86 61.9074 198.072 61.694 199.488 61.694C200.921 61.694 202.142 61.9074 203.148 62.334C204.172 62.7435 204.966 63.3322 205.529 64.1001C206.092 64.851 206.399 65.7469 206.45 66.7878L203.123 67.7093C203.123 67.1803 203.037 66.7195 202.867 66.3271C202.696 65.9346 202.457 65.6104 202.15 65.3544C201.843 65.0814 201.459 64.8766 200.998 64.7401C200.555 64.6035 200.043 64.5353 199.462 64.5353C198.797 64.5353 198.217 64.6206 197.722 64.7913C197.244 64.9619 196.877 65.1923 196.621 65.4824C196.382 65.7725 196.263 66.1138 196.263 66.5062C196.263 66.967 196.451 67.3509 196.826 67.6581C197.218 67.9482 197.73 68.1871 198.362 68.3748C199.01 68.5625 199.718 68.7417 200.486 68.9123C201.22 69.0659 201.962 69.2622 202.713 69.5011C203.481 69.7229 204.189 70.0215 204.838 70.397C205.503 70.7553 206.032 71.2502 206.425 71.8816C206.834 72.4959 207.039 73.2723 207.039 74.2109C207.039 75.2348 206.766 76.1306 206.22 76.8985C205.674 77.6664 204.855 78.2637 203.763 78.6903C202.688 79.0999 201.357 79.3046 199.77 79.3046Z" fill="#6800B8"/>
<defs>
<linearGradient id="paint0_linear_4052_1168" x1="61.7678" y1="51.1558" x2="0.0783691" y2="51.1558" gradientUnits="userSpaceOnUse">
<stop stop-color="#B026D4"/>
<stop offset="1" stop-color="#FA5A39"/>
</linearGradient>
<linearGradient id="paint1_linear_4052_1168" x1="8.43262" y1="40.1695" x2="48.8882" y2="40.1695" gradientUnits="userSpaceOnUse">
<stop stop-color="#FF5D30"/>
<stop offset="1" stop-color="#AE25D8"/>
</linearGradient>
</defs>
</svg>
