<svg width="298" height="87" viewBox="0 0 298 87" fill="none" xmlns="http://www.w3.org/2000/svg">
<path d="M286.312 52.6964V29.5879H290.621V52.6964H286.312Z" fill="black"/>
<path d="M264.043 52.6968L273.975 29.1904H274.312L284.277 52.6968H279.698L278.386 49.3482H270.002L268.756 52.6968H264.043ZM273.572 39.833L271.215 46.1324H277.139L274.682 39.833L274.109 37.9763L273.572 39.833Z" fill="black"/>
<path d="M245.662 58.9632L248.389 51.57L242.094 36.1865H246.774L249.264 43.5467L250.342 47.3594L251.419 43.5467L253.944 36.1865H258.353L249.803 58.9632H245.662Z" fill="black"/>
<path d="M234.455 53.1275C232.57 53.1275 231.049 52.7408 229.894 51.9673C228.738 51.1827 227.896 50.1494 227.368 48.8674C226.841 47.5744 226.578 46.1653 226.578 44.6403C226.578 43.0378 226.875 41.5679 227.469 40.2307C228.076 38.8825 228.957 37.8049 230.112 36.9982C231.28 36.1915 232.705 35.7881 234.388 35.7881C236.902 35.7881 238.658 36.5064 239.657 37.9431C240.655 39.3686 241.155 41.3912 241.155 44.0104C241.155 44.2424 241.149 44.5352 241.139 44.8888C241.127 45.2425 241.11 45.5465 241.087 45.8006H230.987C231.054 47.1047 231.426 48.127 232.099 48.8674C232.783 49.6078 233.804 49.978 235.163 49.978C235.858 49.978 236.604 49.8289 237.401 49.5304C238.198 49.221 238.787 48.8509 239.169 48.4198L240.515 51.5695C240.067 51.8678 239.354 52.2049 238.377 52.5807C237.413 52.9453 236.105 53.1275 234.455 53.1275ZM230.954 43.2147H236.879C236.879 42.0542 236.773 41.1701 236.559 40.5622C236.357 39.9434 236.077 39.5179 235.717 39.2859C235.359 39.0537 234.949 38.9377 234.489 38.9377C233.344 38.9377 232.485 39.3577 231.913 40.1976C231.341 41.0265 231.022 42.0322 230.954 43.2147Z" fill="black"/>
<path d="M209.336 52.6956V36.185H213.242L213.326 38.3565C213.763 37.6935 214.375 37.1022 215.161 36.5828C215.946 36.0523 216.978 35.7871 218.259 35.7871C219.964 35.7871 221.232 36.3175 222.062 37.3785C222.893 38.4394 223.309 39.9093 223.309 41.7881V52.6956H218.999V42.1526C218.999 41.2355 218.803 40.495 218.409 39.9313C218.016 39.3567 217.417 39.0693 216.608 39.0693C215.823 39.0693 215.134 39.3567 214.538 39.9313C213.944 40.495 213.646 41.2355 213.646 42.1526V52.6956H209.336Z" fill="black"/>
<path d="M198.251 53.0275C195.782 53.0275 193.874 52.2647 192.528 50.7396C191.181 49.2145 190.508 47.1038 190.508 44.4072C190.508 41.6885 191.204 39.5721 192.595 38.0581C193.986 36.5441 195.917 35.7871 198.386 35.7871C200.865 35.7871 202.752 36.5717 204.042 38.1411C205.344 39.6993 205.994 41.7879 205.994 44.4072C205.994 47.0263 205.321 49.1206 203.974 50.6899C202.639 52.2482 200.731 53.0275 198.251 53.0275ZM198.318 49.7119C200.45 49.7119 201.516 47.9436 201.516 44.4072C201.516 40.8486 200.45 39.0693 198.318 39.0693C197.263 39.0693 196.445 39.4838 195.861 40.3127C195.277 41.1304 194.985 42.4953 194.985 44.4072C194.985 46.3081 195.277 47.6673 195.861 48.4852C196.445 49.3029 197.263 49.7119 198.318 49.7119Z" fill="black"/>
<path d="M167.469 52.6968V29.1904H167.805L177.299 40.2143L186.726 29.1904H187.096V52.6968H182.921V42.7837L183.073 38.8716L181.878 40.6619L177.266 45.9997L172.653 40.6619L171.459 38.8716L171.643 42.7837V52.6968H167.469Z" fill="black"/>
<path d="M155.061 53.1611C153.704 53.1611 152.524 52.8021 151.526 52.0839C150.527 51.3654 149.753 50.3543 149.203 49.0502C148.664 47.7462 148.395 46.2211 148.395 44.4749C148.395 41.7563 148.955 39.6289 150.078 38.0928C151.211 36.5567 152.895 35.7885 155.128 35.7885C156.273 35.7885 157.237 36.0704 158.024 36.634C158.82 37.1866 159.336 37.9878 159.572 39.0376L159.269 36.6174V27.5H163.242V52.6972H159.572V49.3154C159.269 50.4538 158.735 51.3821 157.973 52.1004C157.21 52.8077 156.239 53.1611 155.061 53.1611ZM156.037 49.8791C156.845 49.8791 157.569 49.4647 158.208 48.6358C158.848 47.796 159.169 46.4311 159.169 44.5413C159.169 42.8172 158.921 41.4856 158.427 40.5462C157.933 39.6068 157.17 39.1372 156.138 39.1372C155.61 39.1372 155.083 39.2974 154.556 39.6179C154.039 39.9384 153.608 40.491 153.26 41.2756C152.912 42.0493 152.738 43.1156 152.738 44.4749C152.738 46.2984 153.058 47.6578 153.697 48.553C154.337 49.437 155.117 49.8791 156.037 49.8791Z" fill="black"/>
<path d="M131.062 52.6956V36.185H134.968L135.051 38.3565C135.49 37.6935 136.101 37.1022 136.887 36.5828C137.672 36.0523 138.705 35.7871 139.984 35.7871C141.69 35.7871 142.958 36.3175 143.788 37.3785C144.619 38.4394 145.034 39.9093 145.034 41.7881V52.6956H140.724V42.1526C140.724 41.2355 140.528 40.495 140.135 39.9313C139.743 39.3567 139.142 39.0693 138.334 39.0693C137.549 39.0693 136.859 39.3567 136.263 39.9313C135.669 40.495 135.372 41.2355 135.372 42.1526V52.6956H131.062Z" fill="black"/>
<path d="M120.995 53.1275C119.11 53.1275 117.59 52.7408 116.434 51.9673C115.278 51.1827 114.436 50.1494 113.908 48.8674C113.381 47.5744 113.117 46.1653 113.117 44.6403C113.117 43.0378 113.415 41.5679 114.01 40.2307C114.616 38.8825 115.496 37.8049 116.652 36.9982C117.819 36.1915 119.245 35.7881 120.928 35.7881C123.442 35.7881 125.198 36.5064 126.197 37.9431C127.195 39.3686 127.695 41.3912 127.695 44.0104C127.695 44.2424 127.689 44.5352 127.678 44.8888C127.667 45.2425 127.65 45.5465 127.628 45.8006H117.528C117.595 47.1047 117.965 48.127 118.639 48.8674C119.323 49.6078 120.344 49.978 121.703 49.978C122.398 49.978 123.144 49.8289 123.941 49.5304C124.738 49.221 125.327 48.8509 125.709 48.4198L127.055 51.5695C126.606 51.8678 125.894 52.2049 124.917 52.5807C123.952 52.9453 122.645 53.1275 120.995 53.1275ZM117.494 43.2147H123.419C123.419 42.0542 123.313 41.1701 123.099 40.5622C122.897 39.9434 122.617 39.5179 122.258 39.2859C121.899 39.0537 121.489 38.9377 121.029 38.9377C119.885 38.9377 119.026 39.3577 118.454 40.1976C117.881 41.0265 117.561 42.0322 117.494 43.2147Z" fill="black"/>
<path d="M101.766 52.698V36.1872H105.57L105.772 39.1048C105.951 38.6739 106.226 38.2152 106.596 37.7289C106.978 37.2427 107.5 36.8338 108.162 36.5022C108.836 36.1596 109.699 35.9883 110.754 35.9883C111.08 35.9883 111.366 36.0105 111.613 36.0547C111.86 36.0989 112.09 36.1652 112.303 36.2536L111.36 40.5967C111.001 40.2431 110.451 40.0663 109.711 40.0663C108.847 40.0663 108.14 40.2431 107.59 40.5967C107.04 40.9393 106.63 41.3262 106.361 41.7572C106.103 42.1881 105.974 42.5197 105.974 42.7518V52.698H101.766Z" fill="black"/>
<path d="M90.0295 52.6964V33.3344H84.6094V29.5879H99.7929V33.3344H94.3723V52.6964H90.0295Z" fill="black"/>
<path d="M59.7739 34.4557L52.6903 27.3721L49.1484 30.9138L56.2322 37.9975L59.7739 34.4557Z" fill="#231C50"/>
<path d="M38.7349 55.4918L31.6511 48.4082L28.1094 51.95L35.193 59.0337L38.7349 55.4918Z" fill="#DF1A6B"/>
<path d="M52.6903 59.0337L59.7739 51.9501L56.2322 48.4082L49.1484 55.4918L52.6903 59.0337Z" fill="#6800B8"/>
<path d="M31.6511 37.9975L38.7349 30.9138L35.193 27.3721L28.1094 34.4557L31.6511 37.9975Z" fill="#FB5B32"/>
<g filter="url(#filter0_d_4034_461)">
<path d="M44.1411 18.8564V7.33594L59.6688 22.8635V27.3716H64.1765L79.7043 42.8991H68.1841L44.1411 18.8564Z" fill="url(#paint0_linear_4034_461)"/>
</g>
<g filter="url(#filter1_d_4034_461)">
<path d="M44.1406 67.4419V78.9627L59.6683 63.435V58.9272H64.176L79.7038 43.3994H68.1836L44.1406 67.4419Z" fill="url(#paint1_linear_4034_461)"/>
</g>
<g filter="url(#filter2_d_4034_461)">
<path d="M43.6375 67.4419V78.9627L28.1098 63.435V58.9272H23.6018L8.07422 43.3994H19.5946L43.6375 67.4419Z" fill="url(#paint2_linear_4034_461)"/>
</g>
<g filter="url(#filter3_d_4034_461)">
<path d="M43.6375 18.8564V7.33594L28.1098 22.8635V27.3716H23.6018L8.07422 42.8991H19.5946L43.6375 18.8564Z" fill="url(#paint3_linear_4034_461)"/>
</g>
<g filter="url(#filter4_d_4034_461)">
<path d="M61.3395 43.1726L43.8904 25.7236L26.4414 43.1726L43.8905 60.6217L61.3395 43.1726Z" fill="#F3F1FF"/>
</g>
<path d="M48.0117 49.5995V35.3711H50.6247V49.5995H48.0117Z" fill="#231C50"/>
<path d="M34.5078 49.6012L40.5299 35.1279H40.734L46.7764 49.6012H44.0002L43.2041 47.5394H38.121L37.3658 49.6012H34.5078ZM40.2849 41.6807L38.856 45.5593H42.4488L40.9586 41.6807L40.6115 40.5375L40.2849 41.6807Z" fill="#231C50"/>
<defs>
<filter id="filter0_d_4034_461" x="38.2796" y="3.42828" width="43.3785" height="43.3788" filterUnits="userSpaceOnUse" color-interpolation-filters="sRGB">
<feFlood flood-opacity="0" result="BackgroundImageFix"/>
<feColorMatrix in="SourceAlpha" type="matrix" values="0 0 0 0 0 0 0 0 0 0 0 0 0 0 0 0 0 0 127 0" result="hardAlpha"/>
<feOffset dx="-1.95383"/>
<feGaussianBlur stdDeviation="1.95383"/>
<feComposite in2="hardAlpha" operator="out"/>
<feColorMatrix type="matrix" values="0 0 0 0 0.137255 0 0 0 0 0.109804 0 0 0 0 0.313726 0 0 0 0.5 0"/>
<feBlend mode="normal" in2="BackgroundImageFix" result="effect1_dropShadow_4034_461"/>
<feBlend mode="normal" in="SourceGraphic" in2="effect1_dropShadow_4034_461" result="shape"/>
</filter>
<filter id="filter1_d_4034_461" x="40.233" y="37.5379" width="43.3785" height="43.3788" filterUnits="userSpaceOnUse" color-interpolation-filters="sRGB">
<feFlood flood-opacity="0" result="BackgroundImageFix"/>
<feColorMatrix in="SourceAlpha" type="matrix" values="0 0 0 0 0 0 0 0 0 0 0 0 0 0 0 0 0 0 127 0" result="hardAlpha"/>
<feOffset dy="-1.95383"/>
<feGaussianBlur stdDeviation="1.95383"/>
<feComposite in2="hardAlpha" operator="out"/>
<feColorMatrix type="matrix" values="0 0 0 0 0.137255 0 0 0 0 0.109804 0 0 0 0 0.313726 0 0 0 0.5 0"/>
<feBlend mode="normal" in2="BackgroundImageFix" result="effect1_dropShadow_4034_461"/>
<feBlend mode="normal" in="SourceGraphic" in2="effect1_dropShadow_4034_461" result="shape"/>
</filter>
<filter id="filter2_d_4034_461" x="4.16656" y="37.5379" width="43.3785" height="43.3788" filterUnits="userSpaceOnUse" color-interpolation-filters="sRGB">
<feFlood flood-opacity="0" result="BackgroundImageFix"/>
<feColorMatrix in="SourceAlpha" type="matrix" values="0 0 0 0 0 0 0 0 0 0 0 0 0 0 0 0 0 0 127 0" result="hardAlpha"/>
<feOffset dy="-1.95383"/>
<feGaussianBlur stdDeviation="1.95383"/>
<feComposite in2="hardAlpha" operator="out"/>
<feColorMatrix type="matrix" values="0 0 0 0 0.137255 0 0 0 0 0.109804 0 0 0 0 0.313726 0 0 0 0.5 0"/>
<feBlend mode="normal" in2="BackgroundImageFix" result="effect1_dropShadow_4034_461"/>
<feBlend mode="normal" in="SourceGraphic" in2="effect1_dropShadow_4034_461" result="shape"/>
</filter>
<filter id="filter3_d_4034_461" x="6.12039" y="3.42828" width="43.3785" height="43.3788" filterUnits="userSpaceOnUse" color-interpolation-filters="sRGB">
<feFlood flood-opacity="0" result="BackgroundImageFix"/>
<feColorMatrix in="SourceAlpha" type="matrix" values="0 0 0 0 0 0 0 0 0 0 0 0 0 0 0 0 0 0 127 0" result="hardAlpha"/>
<feOffset dx="1.95383"/>
<feGaussianBlur stdDeviation="1.95383"/>
<feComposite in2="hardAlpha" operator="out"/>
<feColorMatrix type="matrix" values="0 0 0 0 0.137255 0 0 0 0 0.109804 0 0 0 0 0.313726 0 0 0 0.5 0"/>
<feBlend mode="normal" in2="BackgroundImageFix" result="effect1_dropShadow_4034_461"/>
<feBlend mode="normal" in="SourceGraphic" in2="effect1_dropShadow_4034_461" result="shape"/>
</filter>
<filter id="filter4_d_4034_461" x="22.5337" y="21.816" width="42.7134" height="42.7138" filterUnits="userSpaceOnUse" color-interpolation-filters="sRGB">
<feFlood flood-opacity="0" result="BackgroundImageFix"/>
<feColorMatrix in="SourceAlpha" type="matrix" values="0 0 0 0 0 0 0 0 0 0 0 0 0 0 0 0 0 0 127 0" result="hardAlpha"/>
<feOffset/>
<feGaussianBlur stdDeviation="1.95383"/>
<feComposite in2="hardAlpha" operator="out"/>
<feColorMatrix type="matrix" values="0 0 0 0 0.137255 0 0 0 0 0.109804 0 0 0 0 0.313726 0 0 0 1 0"/>
<feBlend mode="normal" in2="BackgroundImageFix" result="effect1_dropShadow_4034_461"/>
<feBlend mode="normal" in="SourceGraphic" in2="effect1_dropShadow_4034_461" result="shape"/>
</filter>
<linearGradient id="paint0_linear_4034_461" x1="44.1411" y1="13.8475" x2="74.6953" y2="43.4001" gradientUnits="userSpaceOnUse">
<stop stop-color="#6800B8"/>
<stop offset="1" stop-color="#20DCDC"/>
</linearGradient>
<linearGradient id="paint1_linear_4034_461" x1="42.6379" y1="72.4509" x2="73.6933" y2="43.3994" gradientUnits="userSpaceOnUse">
<stop stop-color="#FB1D75"/>
<stop offset="1" stop-color="#20DCDC"/>
</linearGradient>
<linearGradient id="paint2_linear_4034_461" x1="14.5857" y1="44.9021" x2="40.632" y2="70.9482" gradientUnits="userSpaceOnUse">
<stop stop-color="#FA9911"/>
<stop offset="0.5" stop-color="#FB5B32"/>
<stop offset="1" stop-color="#DF1A6B"/>
</linearGradient>
<linearGradient id="paint3_linear_4034_461" x1="43.1365" y1="13.8475" x2="15.0867" y2="43.4001" gradientUnits="userSpaceOnUse">
<stop stop-color="#6800B8"/>
<stop offset="0.5" stop-color="#FB5B32"/>
<stop offset="1" stop-color="#FA9911"/>
</linearGradient>
</defs>
</svg>
