<svg width="324" height="195" viewBox="0 0 324 195" fill="none" xmlns="http://www.w3.org/2000/svg">
<rect width="324" height="195" rx="16" fill="white"/>
<path d="M58.7519 80.4863C53.2744 86.2312 49.912 94.0108 49.912 102.575C49.9123 120.255 64.2445 134.588 81.9247 134.588C84.7756 134.588 87.5391 134.213 90.1699 133.514L89.8476 135.76C87.305 136.365 84.6524 136.688 81.9247 136.688C63.0852 136.687 47.8127 121.415 47.8124 102.575C47.8124 91.7255 52.8777 82.0585 60.7724 75.8105L58.7519 80.4863ZM89.2802 69.2598C104.584 72.6233 116.038 86.2607 116.038 102.575C116.038 114.707 109.703 125.357 100.163 131.405L102.209 127.342C109.369 121.471 113.938 112.557 113.938 102.575C113.938 87.1951 103.092 74.3493 88.6318 71.2666L89.2802 69.2598Z" fill="url(#paint0_linear_4034_496)"/>
<path d="M96.9426 46C62.3051 66.835 52.5436 101.84 58.8414 101.84C61.3606 97.0116 68.3928 97.4839 70.9644 101.158C73.5359 104.831 68.1829 114.698 73.9033 117.689C79.6237 120.681 85.1342 114.33 90.9072 117.689C95.5255 120.376 94.4409 130.25 93.3213 134.85C96.82 130.39 103.345 118.802 101.456 108.138C99.5665 97.4734 96.2602 95.3322 101.456 88.7196C92.9014 86.9352 93.7936 97.5364 89.2803 101.63C84.1157 106.314 74.1132 108.19 79.7287 94.3876C79.2039 76.3341 84.2421 63.2138 96.9426 46Z" fill="url(#paint1_linear_4034_496)"/>
<path d="M130.353 102.838V67.3286H138.155V102.838H130.353ZM135.733 102.838V96.5431H157.738V102.838H135.733ZM135.733 87.7733V82.0165H155.048V87.7733H135.733ZM135.733 73.5696V67.3286H157.631V73.5696H135.733ZM170.886 103.591C168.519 103.591 166.439 102.981 164.645 101.762C162.888 100.542 161.525 98.8207 160.556 96.5969C159.588 94.373 159.104 91.7367 159.104 88.688C159.104 85.8185 159.534 83.2719 160.395 81.0481C161.256 78.8243 162.529 77.0847 164.215 75.8293C165.901 74.5739 167.999 73.9462 170.51 73.9462C172.339 73.9462 173.881 74.287 175.137 74.9684C176.392 75.6499 177.414 76.6542 178.203 77.9814C179.028 79.2726 179.674 80.8329 180.14 82.6621H181.378C181.127 81.5144 180.894 80.4024 180.678 79.3264C180.499 78.2145 180.356 77.1564 180.248 76.1521C180.14 75.1478 180.087 74.269 180.087 73.5158V64.3694H187.834V88.957V102.838H181.378V94.66H180.302C179.907 96.6686 179.297 98.3365 178.472 99.6636C177.647 100.991 176.589 101.977 175.298 102.623C174.043 103.268 172.572 103.591 170.886 103.591ZM173.469 97.2425C174.653 97.2425 175.657 96.9914 176.482 96.4893C177.307 95.9871 177.988 95.3415 178.526 94.5524C179.064 93.7274 179.459 92.8486 179.71 91.9161C179.961 90.9476 180.087 90.0509 180.087 89.226V88.2037C180.087 87.5222 179.979 86.8228 179.764 86.1055C179.584 85.3522 179.315 84.6169 178.957 83.8996C178.598 83.1822 178.15 82.5545 177.612 82.0165C177.074 81.4426 176.446 80.9943 175.729 80.6715C175.011 80.3486 174.222 80.1872 173.361 80.1872C172.07 80.1872 170.976 80.5459 170.079 81.2633C169.183 81.9806 168.483 82.9849 167.981 84.2762C167.479 85.5316 167.228 87.0022 167.228 88.688C167.228 90.4096 167.479 91.9161 167.981 93.2073C168.519 94.4986 169.254 95.5029 170.187 96.2202C171.12 96.9017 172.213 97.2425 173.469 97.2425ZM202.397 103.591C199.097 103.591 196.604 102.479 194.918 100.255C193.268 97.9957 192.443 94.5703 192.443 89.9792V74.5918H200.191V89.0108C200.191 91.7726 200.603 93.835 201.428 95.198C202.253 96.5251 203.509 97.1887 205.194 97.1887C206.199 97.1887 207.077 96.9376 207.831 96.4355C208.584 95.9333 209.23 95.2339 209.768 94.3372C210.306 93.4405 210.7 92.3824 210.951 91.1629C211.238 89.9433 211.4 88.6342 211.435 87.2353V74.5918H219.183V91.3243V102.838H212.942L212.888 94.0144H211.92C211.382 96.2382 210.7 98.0674 209.875 99.5022C209.086 100.901 208.064 101.941 206.808 102.623C205.589 103.268 204.118 103.591 202.397 103.591Z" fill="#6800B8"/>
<path d="M131.305 133.51V114.826H137.448L142.657 128.895H142.798L147.894 114.826H153.754V133.51H149.875L150.13 118.959H149.819L144.157 133.51H140.76L135.183 118.959H134.872L135.126 133.51H131.305ZM155.21 133.51L161.608 114.826H167.553L173.95 133.51H169.534L164.807 118.053H164.382L159.626 133.51H155.21ZM158.805 129.83V127.055H170.95V129.83H158.805ZM175.401 133.51V114.826H179.506V133.51H175.401ZM178.232 133.51V130.198H189.81V133.51H178.232ZM178.232 125.583V122.554H188.395V125.583H178.232ZM178.232 118.11V114.826H189.754V118.11H178.232ZM199.042 133.906C197.815 133.906 196.711 133.783 195.73 133.538C194.767 133.312 193.937 132.962 193.239 132.491C192.559 132 192.022 131.396 191.625 130.679C191.248 129.943 191.031 129.103 190.974 128.159L194.541 126.999C194.579 127.848 194.786 128.556 195.164 129.122C195.56 129.688 196.117 130.103 196.834 130.368C197.551 130.632 198.353 130.764 199.24 130.764C200.089 130.764 200.807 130.66 201.392 130.452C201.977 130.245 202.42 129.971 202.722 129.631C203.024 129.273 203.175 128.886 203.175 128.471C203.175 127.98 202.986 127.584 202.609 127.282C202.232 126.98 201.713 126.725 201.052 126.518C200.41 126.31 199.674 126.112 198.844 125.923C197.919 125.715 197.004 125.48 196.098 125.215C195.211 124.951 194.399 124.611 193.663 124.196C192.946 123.781 192.371 123.243 191.937 122.583C191.521 121.922 191.314 121.092 191.314 120.091C191.314 118.94 191.597 117.949 192.163 117.119C192.748 116.27 193.597 115.609 194.711 115.137C195.824 114.666 197.164 114.43 198.731 114.43C200.316 114.43 201.665 114.666 202.779 115.137C203.911 115.59 204.789 116.241 205.412 117.091C206.034 117.921 206.374 118.912 206.431 120.063L202.751 121.082C202.751 120.497 202.656 119.988 202.467 119.554C202.279 119.12 202.014 118.761 201.675 118.478C201.335 118.176 200.91 117.949 200.401 117.798C199.91 117.647 199.344 117.572 198.702 117.572C197.966 117.572 197.325 117.666 196.777 117.855C196.249 118.044 195.843 118.299 195.56 118.619C195.296 118.94 195.164 119.318 195.164 119.752C195.164 120.261 195.371 120.686 195.787 121.026C196.221 121.346 196.787 121.611 197.485 121.818C198.202 122.026 198.985 122.224 199.835 122.413C200.646 122.583 201.467 122.8 202.298 123.064C203.147 123.309 203.93 123.639 204.647 124.055C205.383 124.451 205.968 124.998 206.402 125.697C206.855 126.376 207.082 127.235 207.082 128.273C207.082 129.405 206.78 130.396 206.176 131.245C205.572 132.094 204.666 132.755 203.458 133.227C202.269 133.68 200.797 133.906 199.042 133.906ZM212.983 133.51V114.826H217.059V133.51H212.983ZM207.463 118.251V114.826H222.58V118.251H207.463ZM224.06 133.51V114.826H231.647C232.666 114.826 233.59 114.911 234.421 115.081C235.251 115.232 235.987 115.458 236.629 115.76C237.271 116.062 237.808 116.44 238.242 116.893C238.695 117.327 239.035 117.836 239.262 118.421C239.488 118.987 239.601 119.62 239.601 120.318C239.601 120.978 239.498 121.582 239.29 122.13C239.082 122.658 238.771 123.12 238.356 123.517C237.941 123.913 237.422 124.243 236.799 124.508C236.176 124.753 235.449 124.923 234.619 125.017V125.442C235.581 125.536 236.346 125.763 236.912 126.121C237.497 126.461 237.95 126.923 238.271 127.508C238.611 128.093 238.903 128.82 239.148 129.688L240.281 133.51H235.78L234.902 129.971C234.732 129.216 234.487 128.631 234.166 128.216C233.845 127.782 233.439 127.48 232.949 127.31C232.458 127.121 231.864 127.027 231.165 127.027H228.136V133.51H224.06ZM228.136 123.97H231.363C232.647 123.97 233.638 123.724 234.336 123.234C235.034 122.743 235.383 121.979 235.383 120.941C235.383 119.922 235.053 119.176 234.393 118.704C233.751 118.214 232.779 117.968 231.477 117.968H228.136V123.97ZM250.237 133.906C248.878 133.906 247.661 133.698 246.585 133.283C245.51 132.849 244.585 132.226 243.811 131.415C243.056 130.585 242.471 129.575 242.056 128.386C241.66 127.178 241.461 125.8 241.461 124.253C241.461 122.045 241.848 120.224 242.622 118.789C243.396 117.336 244.453 116.251 245.793 115.534C247.152 114.798 248.68 114.43 250.379 114.43C251.7 114.43 252.898 114.647 253.974 115.081C255.05 115.496 255.965 116.119 256.72 116.949C257.494 117.761 258.088 118.78 258.503 120.007C258.919 121.214 259.126 122.601 259.126 124.168C259.126 125.772 258.919 127.178 258.503 128.386C258.088 129.594 257.484 130.613 256.692 131.443C255.918 132.255 254.984 132.868 253.889 133.283C252.794 133.698 251.577 133.906 250.237 133.906ZM250.35 130.651C251.351 130.651 252.19 130.405 252.87 129.915C253.549 129.424 254.068 128.716 254.427 127.791C254.785 126.867 254.965 125.734 254.965 124.394C254.965 122.998 254.776 121.809 254.399 120.827C254.04 119.846 253.512 119.101 252.813 118.591C252.115 118.063 251.266 117.798 250.265 117.798C249.284 117.798 248.444 118.053 247.746 118.563C247.067 119.053 246.538 119.771 246.161 120.714C245.802 121.658 245.623 122.828 245.623 124.225C245.623 125.244 245.727 126.159 245.934 126.97C246.161 127.763 246.472 128.433 246.868 128.98C247.265 129.528 247.755 129.943 248.341 130.226C248.926 130.509 249.596 130.651 250.35 130.651ZM268.657 133.906C267.43 133.906 266.326 133.783 265.345 133.538C264.382 133.312 263.552 132.962 262.854 132.491C262.174 132 261.637 131.396 261.24 130.679C260.863 129.943 260.646 129.103 260.589 128.159L264.156 126.999C264.194 127.848 264.401 128.556 264.779 129.122C265.175 129.688 265.732 130.103 266.449 130.368C267.166 130.632 267.968 130.764 268.855 130.764C269.704 130.764 270.422 130.66 271.007 130.452C271.592 130.245 272.035 129.971 272.337 129.631C272.639 129.273 272.79 128.886 272.79 128.471C272.79 127.98 272.601 127.584 272.224 127.282C271.846 126.98 271.328 126.725 270.667 126.518C270.025 126.31 269.289 126.112 268.459 125.923C267.534 125.715 266.619 125.48 265.713 125.215C264.826 124.951 264.014 124.611 263.278 124.196C262.561 123.781 261.986 123.243 261.552 122.583C261.136 121.922 260.929 121.092 260.929 120.091C260.929 118.94 261.212 117.949 261.778 117.119C262.363 116.27 263.212 115.609 264.326 115.137C265.439 114.666 266.779 114.43 268.346 114.43C269.931 114.43 271.28 114.666 272.394 115.137C273.526 115.59 274.404 116.241 275.027 117.091C275.649 117.921 275.989 118.912 276.046 120.063L272.365 121.082C272.365 120.497 272.271 119.988 272.082 119.554C271.894 119.12 271.629 118.761 271.29 118.478C270.95 118.176 270.525 117.949 270.016 117.798C269.525 117.647 268.959 117.572 268.317 117.572C267.581 117.572 266.94 117.666 266.392 117.855C265.864 118.044 265.458 118.299 265.175 118.619C264.911 118.94 264.779 119.318 264.779 119.752C264.779 120.261 264.986 120.686 265.402 121.026C265.836 121.346 266.402 121.611 267.1 121.818C267.817 122.026 268.6 122.224 269.45 122.413C270.261 122.583 271.082 122.8 271.913 123.064C272.762 123.309 273.545 123.639 274.262 124.055C274.998 124.451 275.583 124.998 276.017 125.697C276.47 126.376 276.697 127.235 276.697 128.273C276.697 129.405 276.395 130.396 275.791 131.245C275.187 132.094 274.281 132.755 273.073 133.227C271.884 133.68 270.412 133.906 268.657 133.906Z" fill="#6800B8"/>
<defs>
<linearGradient id="paint0_linear_4034_496" x1="116.038" y1="102.576" x2="47.8124" y2="102.576" gradientUnits="userSpaceOnUse">
<stop stop-color="#B026D4"/>
<stop offset="1" stop-color="#FA5A39"/>
</linearGradient>
<linearGradient id="paint1_linear_4034_496" x1="57.0507" y1="90.4252" x2="101.792" y2="90.4252" gradientUnits="userSpaceOnUse">
<stop stop-color="#FF5D30"/>
<stop offset="1" stop-color="#AE25D8"/>
</linearGradient>
</defs>
</svg>
