<svg width="411" height="162" viewBox="0 0 411 162" fill="none" xmlns="http://www.w3.org/2000/svg">
<path d="M19.5078 61.4834C9.74014 71.7261 3.74329 85.5963 3.74316 100.867C3.74316 132.39 29.2968 157.944 60.8193 157.944C65.9022 157.944 70.8301 157.279 75.5205 156.032L74.9463 160.037C70.4129 161.115 65.6827 161.688 60.8193 161.688C27.2297 161.687 0 134.457 0 100.867C0.000151583 81.5211 9.03309 64.2848 23.1113 53.1455L19.5078 61.4834ZM73.9365 41.4668C101.221 47.4644 121.639 71.7809 121.64 100.867C121.64 122.497 110.348 141.489 93.3389 152.271L96.9873 145.023C109.752 134.556 117.896 118.663 117.896 100.867C117.896 73.4469 98.5608 50.5429 72.7803 45.0459L73.9365 41.4668Z" fill="url(#paint0_linear_4034_648)"/>
<path d="M87.5965 0C25.841 37.1469 8.43721 99.5574 19.6655 99.5574C24.1571 90.949 36.6948 91.7911 41.2796 98.341C45.8645 104.891 36.3205 122.482 46.5195 127.815C56.7185 133.149 66.5433 121.827 76.8358 127.815C85.0699 132.606 83.1362 150.209 81.14 158.412C87.3779 150.459 99.0117 129.799 95.6432 110.786C92.2747 91.7724 86.3799 87.9548 95.6432 76.1651C80.3915 72.9838 81.9821 91.8847 73.9352 99.1831C64.7274 107.534 46.8938 110.879 56.9057 86.2706C55.97 54.0829 64.9526 30.6906 87.5965 0Z" fill="url(#paint1_linear_4034_648)"/>
<path d="M147.167 101.369V38.0593H161.076V101.369H147.167ZM156.759 101.369V90.146H195.992V101.369H156.759ZM156.759 74.5104V64.2465H191.196V74.5104H156.759ZM156.759 49.1864V38.0593H195.8V49.1864H156.759ZM219.434 102.712C215.213 102.712 211.504 101.625 208.306 99.4507C205.173 97.2764 202.743 94.2068 201.016 90.2419C199.29 86.2771 198.426 81.5768 198.426 76.1411C198.426 71.0252 199.194 66.4848 200.728 62.5199C202.263 58.555 204.533 55.4535 207.539 53.2153C210.545 50.977 214.286 49.8579 218.762 49.8579C222.024 49.8579 224.773 50.4654 227.012 51.6805C229.25 52.8955 231.072 54.6861 232.479 57.0522C233.95 59.3544 235.101 62.1362 235.932 65.3976H238.139C237.691 63.3512 237.275 61.3688 236.892 59.4503C236.572 57.4679 236.316 55.5814 236.124 53.7908C235.932 52.0002 235.837 50.4335 235.837 49.0905V32.7834H249.65V76.6207V101.369H238.139V86.7887H236.22C235.517 90.3698 234.43 93.3435 232.959 95.7096C231.488 98.0757 229.602 99.8344 227.299 100.985C225.061 102.137 222.439 102.712 219.434 102.712ZM224.038 91.393C226.148 91.393 227.939 90.9454 229.41 90.0501C230.88 89.1548 232.096 88.0037 233.055 86.5968C234.014 85.126 234.717 83.5592 235.165 81.8966C235.613 80.1699 235.837 78.5712 235.837 77.1004V75.2778C235.837 74.0628 235.645 72.8157 235.261 71.5368C234.941 70.1938 234.462 68.8829 233.822 67.6039C233.183 66.3249 232.383 65.2058 231.424 64.2465C230.465 63.2233 229.346 62.424 228.067 61.8484C226.788 61.2729 225.381 60.9851 223.846 60.9851C221.544 60.9851 219.593 61.6246 217.995 62.9036C216.396 64.1826 215.149 65.9732 214.254 68.2753C213.358 70.5136 212.911 73.1355 212.911 76.1411C212.911 79.2107 213.358 81.8966 214.254 84.1987C215.213 86.5009 216.524 88.2915 218.187 89.5705C219.849 90.7855 221.8 91.393 224.038 91.393ZM275.614 102.712C269.73 102.712 265.286 100.73 262.28 96.7648C259.338 92.736 257.868 86.6288 257.868 78.4433V51.009H271.681V76.7167C271.681 81.6408 272.416 85.3178 273.887 87.7479C275.358 90.114 277.596 91.2971 280.602 91.2971C282.392 91.2971 283.959 90.8495 285.302 89.9542C286.645 89.0589 287.796 87.8119 288.755 86.2131C289.714 84.6144 290.418 82.7279 290.866 80.5536C291.377 78.3793 291.665 76.0452 291.729 73.5512V51.009H305.542V80.8414V101.369H294.415L294.319 85.6376H292.592C291.633 89.6025 290.418 92.8639 288.947 95.4218C287.54 97.9159 285.718 99.7704 283.479 100.985C281.305 102.137 278.683 102.712 275.614 102.712Z" fill="#6800B8"/>
<path d="M148.864 157.146V123.835H159.817L169.104 148.92H169.356L178.441 123.835H188.888V157.146H181.974L182.428 131.204H181.873L171.779 157.146H165.722L155.779 131.204H155.224L155.678 157.146H148.864ZM191.485 157.146L202.892 123.835H213.491L224.898 157.146H217.024L208.595 129.589H207.838L199.359 157.146H191.485ZM197.895 150.585V145.639H219.548V150.585H197.895ZM227.484 157.146V123.835H234.802V157.146H227.484ZM232.531 157.146V151.241H253.174V157.146H232.531ZM232.531 143.014V137.614H250.65V143.014H232.531ZM232.531 129.69V123.835H253.073V129.69H232.531ZM269.634 157.853C267.447 157.853 265.478 157.634 263.729 157.197C262.013 156.793 260.532 156.171 259.287 155.33C258.076 154.455 257.117 153.378 256.41 152.099C255.737 150.787 255.35 149.29 255.249 147.607L261.609 145.538C261.676 147.052 262.046 148.314 262.719 149.323C263.426 150.333 264.418 151.073 265.697 151.544C266.976 152.015 268.406 152.251 269.987 152.251C271.501 152.251 272.78 152.066 273.823 151.696C274.866 151.325 275.657 150.838 276.195 150.232C276.733 149.593 277.003 148.903 277.003 148.163C277.003 147.288 276.666 146.581 275.993 146.043C275.32 145.504 274.395 145.05 273.217 144.68C272.073 144.31 270.761 143.957 269.28 143.62C267.632 143.25 266 142.829 264.385 142.358C262.803 141.887 261.356 141.282 260.044 140.541C258.766 139.801 257.739 138.842 256.965 137.664C256.225 136.487 255.855 135.006 255.855 133.223C255.855 131.17 256.36 129.404 257.369 127.923C258.412 126.409 259.926 125.232 261.912 124.39C263.897 123.549 266.286 123.129 269.079 123.129C271.905 123.129 274.311 123.549 276.296 124.39C278.315 125.198 279.88 126.359 280.99 127.873C282.1 129.353 282.706 131.12 282.807 133.172L276.246 134.989C276.246 133.946 276.077 133.038 275.741 132.264C275.404 131.49 274.933 130.851 274.328 130.346C273.722 129.808 272.965 129.404 272.056 129.135C271.182 128.865 270.172 128.731 269.028 128.731C267.716 128.731 266.572 128.899 265.596 129.236C264.654 129.572 263.93 130.026 263.426 130.598C262.955 131.17 262.719 131.843 262.719 132.617C262.719 133.526 263.089 134.283 263.83 134.888C264.603 135.46 265.613 135.932 266.858 136.302C268.136 136.672 269.533 137.025 271.047 137.362C272.494 137.664 273.958 138.051 275.438 138.522C276.952 138.96 278.349 139.549 279.627 140.289C280.939 140.996 281.983 141.971 282.756 143.216C283.564 144.428 283.968 145.959 283.968 147.809C283.968 149.828 283.429 151.595 282.353 153.109C281.276 154.623 279.661 155.801 277.507 156.642C275.388 157.449 272.763 157.853 269.634 157.853ZM294.489 157.146V123.835H301.757V157.146H294.489ZM284.647 129.942V123.835H311.599V129.942H284.647ZM314.238 157.146V123.835H327.765C329.582 123.835 331.23 123.987 332.711 124.289C334.191 124.559 335.504 124.962 336.648 125.501C337.792 126.039 338.751 126.712 339.525 127.52C340.332 128.293 340.938 129.202 341.342 130.245C341.745 131.254 341.947 132.382 341.947 133.627C341.947 134.804 341.762 135.881 341.392 136.857C341.022 137.799 340.467 138.623 339.726 139.33C338.986 140.037 338.061 140.625 336.95 141.096C335.84 141.534 334.545 141.837 333.064 142.005V142.762C334.78 142.93 336.143 143.334 337.152 143.973C338.195 144.579 339.003 145.403 339.575 146.446C340.181 147.49 340.702 148.785 341.14 150.333L343.159 157.146H335.133L333.569 150.838C333.266 149.492 332.829 148.449 332.257 147.708C331.685 146.934 330.961 146.396 330.086 146.093C329.211 145.757 328.152 145.588 326.907 145.588H321.506V157.146H314.238ZM321.506 140.138H327.26C329.548 140.138 331.314 139.7 332.559 138.825C333.804 137.95 334.427 136.588 334.427 134.737C334.427 132.92 333.838 131.591 332.66 130.75C331.516 129.875 329.783 129.437 327.462 129.437H321.506V140.138ZM360.91 157.853C358.487 157.853 356.317 157.483 354.399 156.743C352.481 155.969 350.832 154.858 349.453 153.412C348.107 151.931 347.064 150.131 346.324 148.011C345.617 145.858 345.264 143.401 345.264 140.642C345.264 136.705 345.953 133.458 347.333 130.901C348.713 128.31 350.597 126.376 352.986 125.097C355.409 123.785 358.134 123.129 361.162 123.129C363.518 123.129 365.654 123.515 367.572 124.289C369.49 125.03 371.122 126.14 372.468 127.621C373.848 129.067 374.907 130.884 375.648 133.071C376.388 135.225 376.758 137.698 376.758 140.491C376.758 143.351 376.388 145.858 375.648 148.011C374.907 150.165 373.831 151.982 372.418 153.462C371.038 154.909 369.372 156.002 367.421 156.743C365.469 157.483 363.299 157.853 360.91 157.853ZM361.112 152.049C362.895 152.049 364.393 151.611 365.604 150.737C366.815 149.862 367.74 148.6 368.38 146.951C369.019 145.302 369.339 143.284 369.339 140.895C369.339 138.405 369.002 136.285 368.329 134.535C367.69 132.785 366.748 131.456 365.503 130.548C364.258 129.606 362.744 129.135 360.96 129.135C359.211 129.135 357.713 129.589 356.468 130.497C355.257 131.372 354.315 132.651 353.642 134.333C353.003 136.016 352.683 138.102 352.683 140.592C352.683 142.409 352.868 144.041 353.238 145.488C353.642 146.901 354.197 148.095 354.904 149.071C355.61 150.047 356.485 150.787 357.528 151.292C358.571 151.796 359.766 152.049 361.112 152.049ZM393.751 157.853C391.564 157.853 389.595 157.634 387.846 157.197C386.13 156.793 384.649 156.171 383.404 155.33C382.193 154.455 381.234 153.378 380.527 152.099C379.854 150.787 379.467 149.29 379.366 147.607L385.726 145.538C385.793 147.052 386.163 148.314 386.836 149.323C387.543 150.333 388.536 151.073 389.814 151.544C391.093 152.015 392.523 152.251 394.104 152.251C395.618 152.251 396.897 152.066 397.94 151.696C398.983 151.325 399.774 150.838 400.312 150.232C400.851 149.593 401.12 148.903 401.12 148.163C401.12 147.288 400.783 146.581 400.11 146.043C399.437 145.504 398.512 145.05 397.334 144.68C396.19 144.31 394.878 143.957 393.398 143.62C391.749 143.25 390.117 142.829 388.502 142.358C386.92 141.887 385.474 141.282 384.161 140.541C382.883 139.801 381.856 138.842 381.083 137.664C380.342 136.487 379.972 135.006 379.972 133.223C379.972 131.17 380.477 129.404 381.486 127.923C382.529 126.409 384.044 125.232 386.029 124.39C388.014 123.549 390.403 123.129 393.196 123.129C396.022 123.129 398.428 123.549 400.413 124.39C402.432 125.198 403.997 126.359 405.107 127.873C406.217 129.353 406.823 131.12 406.924 133.172L400.363 134.989C400.363 133.946 400.194 133.038 399.858 132.264C399.522 131.49 399.05 130.851 398.445 130.346C397.839 129.808 397.082 129.404 396.174 129.135C395.299 128.865 394.289 128.731 393.145 128.731C391.833 128.731 390.689 128.899 389.713 129.236C388.771 129.572 388.048 130.026 387.543 130.598C387.072 131.17 386.836 131.843 386.836 132.617C386.836 133.526 387.206 134.283 387.947 134.888C388.721 135.46 389.73 135.932 390.975 136.302C392.254 136.672 393.65 137.025 395.164 137.362C396.611 137.664 398.075 138.051 399.555 138.522C401.069 138.96 402.466 139.549 403.744 140.289C405.057 140.996 406.1 141.971 406.874 143.216C407.681 144.428 408.085 145.959 408.085 147.809C408.085 149.828 407.547 151.595 406.47 153.109C405.393 154.623 403.778 155.801 401.625 156.642C399.505 157.449 396.88 157.853 393.751 157.853Z" fill="#6800B8"/>
<defs>
<linearGradient id="paint0_linear_4034_648" x1="121.64" y1="100.868" x2="0" y2="100.868" gradientUnits="userSpaceOnUse">
<stop stop-color="#B026D4"/>
<stop offset="1" stop-color="#FA5A39"/>
</linearGradient>
<linearGradient id="paint1_linear_4034_648" x1="16.4729" y1="79.2061" x2="96.2432" y2="79.2061" gradientUnits="userSpaceOnUse">
<stop stop-color="#FF5D30"/>
<stop offset="1" stop-color="#AE25D8"/>
</linearGradient>
</defs>
</svg>
