<svg width="16" height="16" viewBox="0 0 16 16" fill="none" xmlns="http://www.w3.org/2000/svg">
<path d="M14.9565 3.10788H13.7918C13.9455 2.86433 14.0468 2.59094 14.0758 2.30181C14.1681 1.37779 13.6823 0.549463 12.8553 0.182227C12.0951 -0.155332 11.2408 -0.017341 10.6257 0.541575L9.15505 1.87672C8.86864 1.56292 8.45692 1.3657 7.99998 1.3657C7.54224 1.3657 7.12986 1.56355 6.84339 1.87832L5.3709 0.541418C4.75474 -0.0174975 3.90081 -0.154957 3.14096 0.182415C2.31415 0.549682 1.82828 1.37829 1.9209 2.30228C1.94987 2.59119 2.05118 2.86445 2.20478 3.10788H1.04347C0.467155 3.10788 0 3.57588 0 4.15318V5.72114C0 6.00977 0.233593 6.2438 0.521749 6.2438H15.4783C15.7664 6.2438 16 6.0098 16 5.72114V4.15318C16 3.57588 15.5328 3.10788 14.9565 3.10788ZM6.43477 2.93367V3.10788H3.9803C3.33181 3.10788 2.82143 2.50226 2.9834 1.82588C3.05474 1.52802 3.26937 1.27411 3.54696 1.14557C3.92815 0.969073 4.3504 1.02573 4.67055 1.31602L6.43521 2.91826C6.43511 2.92343 6.43477 2.9285 6.43477 2.93367ZM13.0404 2.16304C13.0015 2.70627 12.5117 3.10794 11.968 3.10794H9.5652V2.93373C9.5652 2.92756 9.56483 2.92146 9.56476 2.91529L11.3021 1.33781C11.5694 1.09511 11.9434 0.981814 12.2892 1.08512C12.7853 1.23338 13.0767 1.65606 13.0404 2.16304ZM1.04347 7.2891V14.9547C1.04347 15.532 1.51062 16 2.08693 16H6.95649V7.2891H1.04347ZM9.04345 7.2891V16H13.913C14.4893 16 14.9565 15.532 14.9565 14.9547V7.2891H9.04345Z" fill="url(#paint0_linear_4034_855)"/>
<defs>
<linearGradient id="paint0_linear_4034_855" x1="0" y1="8" x2="16" y2="8" gradientUnits="userSpaceOnUse">
<stop stop-color="#603FD9"/>
<stop offset="1" stop-color="#E83D72"/>
</linearGradient>
</defs>
</svg>
