<svg width="1440" height="743" viewBox="0 0 1440 743" fill="none" xmlns="http://www.w3.org/2000/svg">
<g opacity="0.9">
<g clip-path="url(#clip0_4034_635)">
<g filter="url(#filter0_f_4034_635)">
<ellipse cx="296.407" cy="211.599" rx="296.407" ry="211.599" transform="matrix(-0.724016 0.689783 0.689783 0.724016 1026.86 647.728)" fill="#877FD6"/>
</g>
<g filter="url(#filter1_f_4034_635)">
<ellipse cx="259.966" cy="213.825" rx="259.966" ry="213.825" transform="matrix(-0.99596 -0.089803 -0.089803 0.99596 697.207 733.259)" fill="#FFD27D"/>
</g>
<g filter="url(#filter2_f_4034_635)">
<path d="M441.65 805.864C431.045 923.479 537.635 1029.21 679.725 1042.02C821.815 1054.84 752.949 952.504 763.554 834.889C774.159 717.274 860.219 628.912 718.129 616.101C576.039 603.289 452.255 688.249 441.65 805.864Z" fill="#D1668D"/>
</g>
</g>
</g>
<defs>
<filter id="filter0_f_4034_635" x="473.578" y="524.805" width="969.279" height="961.161" filterUnits="userSpaceOnUse" color-interpolation-filters="sRGB">
<feFlood flood-opacity="0" result="BackgroundImageFix"/>
<feBlend mode="normal" in="SourceGraphic" in2="BackgroundImageFix" result="shape"/>
<feGaussianBlur stdDeviation="112.54" result="effect1_foregroundBlur_4034_635"/>
</filter>
<filter id="filter1_f_4034_635" x="-65.6295" y="483.54" width="969.437" height="878.669" filterUnits="userSpaceOnUse" color-interpolation-filters="sRGB">
<feFlood flood-opacity="0" result="BackgroundImageFix"/>
<feBlend mode="normal" in="SourceGraphic" in2="BackgroundImageFix" result="shape"/>
<feGaussianBlur stdDeviation="112.54" result="effect1_foregroundBlur_4034_635"/>
</filter>
<filter id="filter2_f_4034_635" x="103.304" y="277.203" width="1033.36" height="1103.53" filterUnits="userSpaceOnUse" color-interpolation-filters="sRGB">
<feFlood flood-opacity="0" result="BackgroundImageFix"/>
<feBlend mode="normal" in="SourceGraphic" in2="BackgroundImageFix" result="shape"/>
<feGaussianBlur stdDeviation="168.809" result="effect1_foregroundBlur_4034_635"/>
</filter>
<clipPath id="clip0_4034_635">
<rect width="1476" height="743" rx="34.0312" transform="matrix(-1 0 0 1 1440 0)" fill="white"/>
</clipPath>
</defs>
</svg>
