<svg width="1301" height="640" viewBox="0 0 1301 640" fill="none" xmlns="http://www.w3.org/2000/svg">
<g clip-path="url(#clip0_4034_694)">
<g filter="url(#filter0_f_4034_694)">
<ellipse cx="876.439" cy="-184.589" rx="261.296" ry="186.534" transform="rotate(-136.387 876.439 -184.589)" fill="#877FD6"/>
</g>
<g filter="url(#filter1_f_4034_694)">
<ellipse cx="401.174" cy="-111.852" rx="229.172" ry="188.496" transform="rotate(174.848 401.174 -111.852)" fill="#FFD27D"/>
</g>
<g filter="url(#filter2_f_4034_694)">
<path d="M421.065 -8.70176C411.716 -112.385 505.679 -205.592 630.938 -216.886C756.197 -228.181 695.488 -137.972 704.837 -34.2887C714.186 69.3941 790.052 147.288 664.793 158.583C539.535 169.877 430.414 94.9811 421.065 -8.70176Z" fill="#D1668D"/>
</g>
</g>
<defs>
<filter id="filter0_f_4034_694" x="449.208" y="-608.241" width="854.461" height="847.305" filterUnits="userSpaceOnUse" color-interpolation-filters="sRGB">
<feFlood flood-opacity="0" result="BackgroundImageFix"/>
<feBlend mode="normal" in="SourceGraphic" in2="BackgroundImageFix" result="shape"/>
<feGaussianBlur stdDeviation="99.2085" result="effect1_foregroundBlur_4034_694"/>
</filter>
<filter id="filter1_f_4034_694" x="-26.1253" y="-499.145" width="854.6" height="774.585" filterUnits="userSpaceOnUse" color-interpolation-filters="sRGB">
<feFlood flood-opacity="0" result="BackgroundImageFix"/>
<feBlend mode="normal" in="SourceGraphic" in2="BackgroundImageFix" result="shape"/>
<feGaussianBlur stdDeviation="99.2085" result="effect1_foregroundBlur_4034_694"/>
</filter>
<filter id="filter2_f_4034_694" x="122.798" y="-515.47" width="910.947" height="972.805" filterUnits="userSpaceOnUse" color-interpolation-filters="sRGB">
<feFlood flood-opacity="0" result="BackgroundImageFix"/>
<feBlend mode="normal" in="SourceGraphic" in2="BackgroundImageFix" result="shape"/>
<feGaussianBlur stdDeviation="148.813" result="effect1_foregroundBlur_4034_694"/>
</filter>
<clipPath id="clip0_4034_694">
<rect x="1301" y="640" width="1301" height="640" rx="30" transform="rotate(180 1301 640)" fill="white"/>
</clipPath>
</defs>
</svg>
