<svg width="1160" height="411" viewBox="0 0 1160 411" fill="none" xmlns="http://www.w3.org/2000/svg">
<g clip-path="url(#clip0_4034_746)">
<rect width="1160" height="411" rx="30" fill="white"/>
<g opacity="0.8">
<g clip-path="url(#clip1_4034_746)">
<g filter="url(#filter0_f_4034_746)">
<ellipse cx="834.435" cy="-196.577" rx="261.296" ry="186.534" transform="rotate(-136.387 834.435 -196.577)" fill="#877FD6"/>
</g>
<g filter="url(#filter1_f_4034_746)">
<ellipse cx="289.174" cy="-123.843" rx="229.172" ry="188.496" transform="rotate(174.848 289.174 -123.843)" fill="#FFD27D"/>
</g>
<g filter="url(#filter2_f_4034_746)">
<path d="M309.065 -20.692C299.716 -124.375 393.679 -217.582 518.938 -228.877C644.197 -240.171 583.488 -149.962 592.837 -46.279C602.186 57.4039 678.052 135.298 552.793 146.592C427.535 157.887 318.414 82.9909 309.065 -20.692Z" fill="#D1668D"/>
</g>
</g>
</g>
</g>
<defs>
<filter id="filter0_f_4034_746" x="407.204" y="-620.229" width="854.461" height="847.305" filterUnits="userSpaceOnUse" color-interpolation-filters="sRGB">
<feFlood flood-opacity="0" result="BackgroundImageFix"/>
<feBlend mode="normal" in="SourceGraphic" in2="BackgroundImageFix" result="shape"/>
<feGaussianBlur stdDeviation="99.2085" result="effect1_foregroundBlur_4034_746"/>
</filter>
<filter id="filter1_f_4034_746" x="-138.125" y="-511.135" width="854.6" height="774.585" filterUnits="userSpaceOnUse" color-interpolation-filters="sRGB">
<feFlood flood-opacity="0" result="BackgroundImageFix"/>
<feBlend mode="normal" in="SourceGraphic" in2="BackgroundImageFix" result="shape"/>
<feGaussianBlur stdDeviation="99.2085" result="effect1_foregroundBlur_4034_746"/>
</filter>
<filter id="filter2_f_4034_746" x="10.7982" y="-527.46" width="910.947" height="972.805" filterUnits="userSpaceOnUse" color-interpolation-filters="sRGB">
<feFlood flood-opacity="0" result="BackgroundImageFix"/>
<feBlend mode="normal" in="SourceGraphic" in2="BackgroundImageFix" result="shape"/>
<feGaussianBlur stdDeviation="148.813" result="effect1_foregroundBlur_4034_746"/>
</filter>
<clipPath id="clip0_4034_746">
<rect width="1160" height="411" rx="30" fill="white"/>
</clipPath>
<clipPath id="clip1_4034_746">
<rect x="1189" y="628" width="1301" height="640" rx="30" transform="rotate(-180 1189 628)" fill="white"/>
</clipPath>
</defs>
</svg>
