<svg width="320" height="129" viewBox="0 0 320 129" fill="none" xmlns="http://www.w3.org/2000/svg">
<g opacity="0.7" filter="url(#filter0_d_4034_755)">
<rect x="24" y="16" width="272" height="81.4463" rx="15.3672" fill="white"/>
</g>
<path d="M265.664 64.4126V45.4531H269.199V64.4126H265.664Z" fill="black"/>
<path d="M247.391 64.4128L255.539 45.127H255.816L263.992 64.4128H260.235L259.158 61.6654H252.28L251.258 64.4128H247.391ZM255.208 53.8586L253.275 59.027H258.135L256.119 53.8586L255.649 52.3354L255.208 53.8586Z" fill="black"/>
<path d="M232.311 69.5534L234.548 63.4876L229.383 50.8662H233.222L235.266 56.9049L236.15 60.033L237.033 56.9049L239.106 50.8662H242.723L235.708 69.5534H232.311Z" fill="black"/>
<path d="M223.119 64.7662C221.573 64.7662 220.325 64.449 219.377 63.8143C218.428 63.1706 217.737 62.3228 217.305 61.271C216.872 60.2102 216.656 59.054 216.656 57.8028C216.656 56.4881 216.9 55.2821 217.387 54.185C217.885 53.0788 218.608 52.1948 219.556 51.5328C220.514 50.871 221.683 50.54 223.064 50.54C225.127 50.54 226.567 51.1294 227.387 52.3082C228.206 53.4777 228.616 55.1371 228.616 57.286C228.616 57.4764 228.611 57.7166 228.602 58.0068C228.593 58.2969 228.579 58.5463 228.56 58.7548H220.274C220.329 59.8248 220.633 60.6635 221.186 61.271C221.747 61.8784 222.585 62.1822 223.7 62.1822C224.27 62.1822 224.882 62.0598 225.536 61.815C226.19 61.5611 226.673 61.2574 226.986 60.9037L228.09 63.4879C227.723 63.7327 227.139 64.0093 226.337 64.3176C225.546 64.6167 224.473 64.7662 223.119 64.7662ZM220.246 56.6332H225.108C225.108 55.6811 225.021 54.9557 224.845 54.457C224.679 53.9493 224.45 53.6002 224.155 53.4098C223.861 53.2193 223.524 53.1241 223.147 53.1241C222.207 53.1241 221.503 53.4687 221.033 54.1578C220.564 54.8379 220.302 55.663 220.246 56.6332Z" fill="black"/>
<path d="M202.508 64.4117V50.8655H205.713L205.782 52.6471C206.14 52.1031 206.643 51.6181 207.287 51.1919C207.931 50.7566 208.778 50.5391 209.828 50.5391C211.228 50.5391 212.268 50.9742 212.949 51.8447C213.631 52.7152 213.972 53.9211 213.972 55.4625V64.4117H210.436V55.7617C210.436 55.0092 210.275 54.4016 209.952 53.9392C209.63 53.4677 209.138 53.232 208.475 53.232C207.83 53.232 207.264 53.4677 206.776 53.9392C206.288 54.4016 206.044 55.0092 206.044 55.7617V64.4117H202.508Z" fill="black"/>
<path d="M193.415 64.684C191.39 64.684 189.824 64.0581 188.72 62.8069C187.615 61.5556 187.062 59.8238 187.062 57.6115C187.062 55.3809 187.634 53.6445 188.775 52.4023C189.916 51.1602 191.501 50.5391 193.526 50.5391C195.56 50.5391 197.108 51.1828 198.167 52.4704C199.235 53.7488 199.768 55.4624 199.768 57.6115C199.768 59.7603 199.216 61.4786 198.111 62.7661C197.016 64.0446 195.45 64.684 193.415 64.684ZM193.47 61.9637C195.22 61.9637 196.095 60.5129 196.095 57.6115C196.095 54.6918 195.22 53.232 193.47 53.232C192.605 53.232 191.933 53.572 191.454 54.2521C190.975 54.923 190.736 56.0428 190.736 57.6115C190.736 59.171 190.975 60.2862 191.454 60.9572C191.933 61.6281 192.605 61.9637 193.47 61.9637Z" fill="black"/>
<path d="M168.16 64.4128V45.127H168.436L176.225 54.1715L183.96 45.127H184.263V64.4128H180.838V56.2796L180.963 53.0699L179.983 54.5388L176.198 58.9181L172.413 54.5388L171.434 53.0699L171.585 56.2796V64.4128H168.16Z" fill="black"/>
<path d="M157.977 64.7939C156.864 64.7939 155.896 64.4994 155.077 63.9102C154.257 63.3207 153.623 62.4911 153.171 61.4212C152.729 60.3513 152.508 59.1 152.508 57.6673C152.508 55.4369 152.968 53.6914 153.889 52.4311C154.819 51.1708 156.2 50.5406 158.032 50.5406C158.972 50.5406 159.763 50.7718 160.408 51.2342C161.062 51.6876 161.485 52.345 161.678 53.2063L161.43 51.2206V43.7402H164.69V64.4133H161.678V61.6388C161.43 62.5727 160.992 63.3343 160.367 63.9237C159.741 64.504 158.944 64.7939 157.977 64.7939ZM158.778 62.1012C159.441 62.1012 160.035 61.7612 160.559 61.0811C161.084 60.3921 161.347 59.2723 161.347 57.7218C161.347 56.3073 161.144 55.2148 160.739 54.444C160.334 53.6733 159.708 53.288 158.861 53.288C158.428 53.288 157.995 53.4194 157.563 53.6824C157.139 53.9454 156.785 54.3987 156.5 55.0424C156.214 55.6772 156.071 56.5521 156.071 57.6673C156.071 59.1634 156.334 60.2787 156.858 61.0132C157.383 61.7385 158.023 62.1012 158.778 62.1012Z" fill="black"/>
<path d="M138.289 64.4117V50.8655H141.493L141.562 52.6471C141.921 52.1031 142.423 51.6181 143.068 51.1919C143.712 50.7566 144.559 50.5391 145.609 50.5391C147.008 50.5391 148.049 50.9742 148.73 51.8447C149.411 52.7152 149.752 53.9211 149.752 55.4625V64.4117H146.216V55.7617C146.216 55.0092 146.055 54.4016 145.732 53.9392C145.411 53.4677 144.918 53.232 144.255 53.232C143.611 53.232 143.045 53.4677 142.556 53.9392C142.068 54.4016 141.825 55.0092 141.825 55.7617V64.4117H138.289Z" fill="black"/>
<path d="M130.03 64.7662C128.483 64.7662 127.236 64.449 126.287 63.8143C125.339 63.1706 124.648 62.3228 124.216 61.271C123.783 60.2102 123.566 59.054 123.566 57.8028C123.566 56.4881 123.811 55.2821 124.299 54.185C124.796 53.0788 125.518 52.1948 126.467 51.5328C127.424 50.871 128.594 50.54 129.975 50.54C132.037 50.54 133.478 51.1294 134.297 52.3082C135.117 53.4777 135.527 55.1371 135.527 57.286C135.527 57.4764 135.522 57.7166 135.513 58.0068C135.503 58.2969 135.49 58.5463 135.472 58.7548H127.185C127.24 59.8248 127.544 60.6635 128.096 61.271C128.658 61.8784 129.496 62.1822 130.61 62.1822C131.181 62.1822 131.793 62.0598 132.447 61.815C133.101 61.5611 133.584 61.2574 133.897 60.9037L135.002 63.4879C134.633 63.7327 134.049 64.0093 133.248 64.3176C132.456 64.6167 131.383 64.7662 130.03 64.7662ZM127.158 56.6332H132.019C132.019 55.6811 131.931 54.9557 131.756 54.457C131.591 53.9493 131.361 53.6002 131.066 53.4098C130.771 53.2193 130.435 53.1241 130.058 53.1241C129.119 53.1241 128.414 53.4687 127.945 54.1578C127.475 54.8379 127.212 55.663 127.158 56.6332Z" fill="black"/>
<path d="M114.254 64.4136V50.8673H117.375L117.541 53.2611C117.688 52.9075 117.914 52.5311 118.217 52.1322C118.53 51.7333 118.959 51.3978 119.502 51.1257C120.054 50.8447 120.763 50.7041 121.629 50.7041C121.896 50.7041 122.131 50.7223 122.333 50.7586C122.536 50.7949 122.725 50.8492 122.899 50.9218L122.126 54.4851C121.831 54.195 121.38 54.05 120.772 54.05C120.064 54.05 119.484 54.195 119.032 54.4851C118.581 54.7662 118.245 55.0836 118.024 55.4372C117.812 55.7908 117.707 56.0628 117.707 56.2532V64.4136H114.254Z" fill="black"/>
<path d="M104.623 64.4126V48.5269H100.176V45.4531H112.633V48.5269H108.186V64.4126H104.623Z" fill="black"/>
<path d="M79.7997 49.4465L73.988 43.6348L71.082 46.5406L76.8939 52.3524L79.7997 49.4465Z" fill="#231C50"/>
<path d="M62.538 66.7063L56.7261 60.8945L53.8203 63.8004L59.6321 69.6123L62.538 66.7063Z" fill="#DF1A6B"/>
<path d="M73.988 69.6122L79.7998 63.8005L76.8939 60.8945L71.082 66.7063L73.988 69.6122Z" fill="#6800B8"/>
<path d="M56.7261 52.3524L62.538 46.5406L59.6321 43.6348L53.8203 49.4465L56.7261 52.3524Z" fill="#FB5B32"/>
<g filter="url(#filter1_d_4034_755)">
<path d="M66.9727 36.6483V27.1963L79.7123 39.9359V43.6345H83.4107L96.1505 56.3741H86.6987L66.9727 36.6483Z" fill="url(#paint0_linear_4034_755)"/>
</g>
<g filter="url(#filter2_d_4034_755)">
<path d="M66.9727 76.5098V85.9622L79.7123 73.2224V69.524H83.4107L96.1505 56.7842H86.6987L66.9727 76.5098Z" fill="url(#paint1_linear_4034_755)"/>
</g>
<g filter="url(#filter3_d_4034_755)">
<path d="M66.5607 76.5098V85.9622L53.8211 73.2224V69.524H50.1224L37.3828 56.7842H46.8348L66.5607 76.5098Z" fill="url(#paint2_linear_4034_755)"/>
</g>
<g filter="url(#filter4_d_4034_755)">
<path d="M66.5607 36.6483V27.1963L53.8211 39.9359V43.6345H50.1224L37.3828 56.3741H46.8348L66.5607 36.6483Z" fill="url(#paint3_linear_4034_755)"/>
</g>
<g filter="url(#filter5_d_4034_755)">
<path d="M81.0814 56.5983L66.7653 42.2822L52.4492 56.5983L66.7654 70.9144L81.0814 56.5983Z" fill="#F3F1FF"/>
</g>
<path d="M70.1484 61.8719V50.1982H72.2923V61.8719H70.1484Z" fill="#231C50"/>
<path d="M59.0703 61.8727L64.0111 49.998H64.1786L69.1361 61.8727H66.8584L66.2052 60.1811H62.0347L61.4151 61.8727H59.0703ZM63.8102 55.3742L62.6378 58.5565H65.5855L64.3628 55.3742L64.0781 54.4363L63.8102 55.3742Z" fill="#231C50"/>
<defs>
<filter id="filter0_d_4034_755" x="0.949154" y="0.63277" width="318.102" height="127.548" filterUnits="userSpaceOnUse" color-interpolation-filters="sRGB">
<feFlood flood-opacity="0" result="BackgroundImageFix"/>
<feColorMatrix in="SourceAlpha" type="matrix" values="0 0 0 0 0 0 0 0 0 0 0 0 0 0 0 0 0 0 127 0" result="hardAlpha"/>
<feOffset dy="7.68362"/>
<feGaussianBlur stdDeviation="11.5254"/>
<feComposite in2="hardAlpha" operator="out"/>
<feColorMatrix type="matrix" values="0 0 0 0 0 0 0 0 0 0 0 0 0 0 0 0 0 0 0.1 0"/>
<feBlend mode="normal" in2="BackgroundImageFix" result="effect1_dropShadow_4034_755"/>
<feBlend mode="normal" in="SourceGraphic" in2="effect1_dropShadow_4034_755" result="shape"/>
</filter>
<filter id="filter1_d_4034_755" x="62.1636" y="23.9902" width="35.5899" height="35.5898" filterUnits="userSpaceOnUse" color-interpolation-filters="sRGB">
<feFlood flood-opacity="0" result="BackgroundImageFix"/>
<feColorMatrix in="SourceAlpha" type="matrix" values="0 0 0 0 0 0 0 0 0 0 0 0 0 0 0 0 0 0 127 0" result="hardAlpha"/>
<feOffset dx="-1.60302"/>
<feGaussianBlur stdDeviation="1.60302"/>
<feComposite in2="hardAlpha" operator="out"/>
<feColorMatrix type="matrix" values="0 0 0 0 0.137255 0 0 0 0 0.109804 0 0 0 0 0.313726 0 0 0 0.5 0"/>
<feBlend mode="normal" in2="BackgroundImageFix" result="effect1_dropShadow_4034_755"/>
<feBlend mode="normal" in="SourceGraphic" in2="effect1_dropShadow_4034_755" result="shape"/>
</filter>
<filter id="filter2_d_4034_755" x="63.7666" y="51.9751" width="35.5899" height="35.5898" filterUnits="userSpaceOnUse" color-interpolation-filters="sRGB">
<feFlood flood-opacity="0" result="BackgroundImageFix"/>
<feColorMatrix in="SourceAlpha" type="matrix" values="0 0 0 0 0 0 0 0 0 0 0 0 0 0 0 0 0 0 127 0" result="hardAlpha"/>
<feOffset dy="-1.60302"/>
<feGaussianBlur stdDeviation="1.60302"/>
<feComposite in2="hardAlpha" operator="out"/>
<feColorMatrix type="matrix" values="0 0 0 0 0.137255 0 0 0 0 0.109804 0 0 0 0 0.313726 0 0 0 0.5 0"/>
<feBlend mode="normal" in2="BackgroundImageFix" result="effect1_dropShadow_4034_755"/>
<feBlend mode="normal" in="SourceGraphic" in2="effect1_dropShadow_4034_755" result="shape"/>
</filter>
<filter id="filter3_d_4034_755" x="34.1768" y="51.9751" width="35.5901" height="35.5898" filterUnits="userSpaceOnUse" color-interpolation-filters="sRGB">
<feFlood flood-opacity="0" result="BackgroundImageFix"/>
<feColorMatrix in="SourceAlpha" type="matrix" values="0 0 0 0 0 0 0 0 0 0 0 0 0 0 0 0 0 0 127 0" result="hardAlpha"/>
<feOffset dy="-1.60302"/>
<feGaussianBlur stdDeviation="1.60302"/>
<feComposite in2="hardAlpha" operator="out"/>
<feColorMatrix type="matrix" values="0 0 0 0 0.137255 0 0 0 0 0.109804 0 0 0 0 0.313726 0 0 0 0.5 0"/>
<feBlend mode="normal" in2="BackgroundImageFix" result="effect1_dropShadow_4034_755"/>
<feBlend mode="normal" in="SourceGraphic" in2="effect1_dropShadow_4034_755" result="shape"/>
</filter>
<filter id="filter4_d_4034_755" x="35.7798" y="23.9902" width="35.5901" height="35.5898" filterUnits="userSpaceOnUse" color-interpolation-filters="sRGB">
<feFlood flood-opacity="0" result="BackgroundImageFix"/>
<feColorMatrix in="SourceAlpha" type="matrix" values="0 0 0 0 0 0 0 0 0 0 0 0 0 0 0 0 0 0 127 0" result="hardAlpha"/>
<feOffset dx="1.60302"/>
<feGaussianBlur stdDeviation="1.60302"/>
<feComposite in2="hardAlpha" operator="out"/>
<feColorMatrix type="matrix" values="0 0 0 0 0.137255 0 0 0 0 0.109804 0 0 0 0 0.313726 0 0 0 0.5 0"/>
<feBlend mode="normal" in2="BackgroundImageFix" result="effect1_dropShadow_4034_755"/>
<feBlend mode="normal" in="SourceGraphic" in2="effect1_dropShadow_4034_755" result="shape"/>
</filter>
<filter id="filter5_d_4034_755" x="49.2432" y="39.0762" width="35.0443" height="35.0439" filterUnits="userSpaceOnUse" color-interpolation-filters="sRGB">
<feFlood flood-opacity="0" result="BackgroundImageFix"/>
<feColorMatrix in="SourceAlpha" type="matrix" values="0 0 0 0 0 0 0 0 0 0 0 0 0 0 0 0 0 0 127 0" result="hardAlpha"/>
<feOffset/>
<feGaussianBlur stdDeviation="1.60302"/>
<feComposite in2="hardAlpha" operator="out"/>
<feColorMatrix type="matrix" values="0 0 0 0 0.137255 0 0 0 0 0.109804 0 0 0 0 0.313726 0 0 0 1 0"/>
<feBlend mode="normal" in2="BackgroundImageFix" result="effect1_dropShadow_4034_755"/>
<feBlend mode="normal" in="SourceGraphic" in2="effect1_dropShadow_4034_755" result="shape"/>
</filter>
<linearGradient id="paint0_linear_4034_755" x1="66.9727" y1="32.5387" x2="92.0409" y2="56.7852" gradientUnits="userSpaceOnUse">
<stop stop-color="#6800B8"/>
<stop offset="1" stop-color="#20DCDC"/>
</linearGradient>
<linearGradient id="paint1_linear_4034_755" x1="65.7397" y1="80.6195" x2="91.2192" y2="56.7842" gradientUnits="userSpaceOnUse">
<stop stop-color="#FB1D75"/>
<stop offset="1" stop-color="#20DCDC"/>
</linearGradient>
<linearGradient id="paint2_linear_4034_755" x1="42.7252" y1="58.0171" x2="64.0949" y2="79.3866" gradientUnits="userSpaceOnUse">
<stop stop-color="#FA9911"/>
<stop offset="0.5" stop-color="#FB5B32"/>
<stop offset="1" stop-color="#DF1A6B"/>
</linearGradient>
<linearGradient id="paint3_linear_4034_755" x1="66.1497" y1="32.5387" x2="43.1362" y2="56.7852" gradientUnits="userSpaceOnUse">
<stop stop-color="#6800B8"/>
<stop offset="0.5" stop-color="#FB5B32"/>
<stop offset="1" stop-color="#FA9911"/>
</linearGradient>
</defs>
</svg>
