<svg width="62" height="35" viewBox="0 0 62 35" fill="none" xmlns="http://www.w3.org/2000/svg">
<path opacity="0.5" d="M52.3584 3.77734C54.0823 2.09675 56.8097 2.0792 58.5557 3.69727L58.7217 3.8584L58.8799 4.02832C60.4532 5.81484 60.365 8.54105 58.6416 10.2217L37.1035 31.2217C35.4638 32.8204 32.9119 32.918 31.1582 31.5195C31.1341 31.5003 31.1101 31.4803 31.0869 31.46L30.8975 31.2939C30.8708 31.2706 30.8447 31.2464 30.8193 31.2217L22.3584 22.9717C22.3344 22.9483 22.3109 22.924 22.2881 22.8994L22.1143 22.7119C22.0915 22.6874 22.0693 22.6624 22.0479 22.6367C20.5823 20.8861 20.6509 18.2777 22.2783 16.6084C23.9058 14.9395 26.51 14.805 28.2969 16.2246C28.3225 16.245 28.3475 16.2665 28.3721 16.2881L28.5645 16.457C28.5906 16.48 28.6167 16.5041 28.6416 16.5283L33.96 21.7139L52.3584 3.77734Z" fill="#877FD6" stroke="white" stroke-width="4" stroke-linecap="round" stroke-linejoin="round"/>
<path d="M33.3584 3.27734C35.0823 1.59675 37.8097 1.5792 39.5557 3.19727L39.7217 3.3584L39.8799 3.52832C41.4532 5.31484 41.365 8.04105 39.6416 9.72168L18.1035 30.7217C16.4638 32.3204 13.9119 32.418 12.1582 31.0195C12.1341 31.0003 12.1101 30.9803 12.0869 30.96L11.8975 30.7939C11.8708 30.7706 11.8447 30.7464 11.8193 30.7217L3.3584 22.4717C3.33439 22.4483 3.31089 22.424 3.28809 22.3994L3.11426 22.2119C3.09152 22.1874 3.06933 22.1624 3.04785 22.1367C1.58226 20.3861 1.65089 17.7777 3.27832 16.1084C4.9058 14.4395 7.50999 14.305 9.29688 15.7246C9.32248 15.745 9.34749 15.7665 9.37207 15.7881L9.56445 15.957C9.59056 15.98 9.61673 16.0041 9.6416 16.0283L14.96 21.2139L33.3584 3.27734Z" fill="#877FD6" stroke="white" stroke-width="4" stroke-linecap="round" stroke-linejoin="round"/>
</svg>
