<svg width="82" height="34" viewBox="0 0 82 34" fill="none" xmlns="http://www.w3.org/2000/svg">
<path opacity="0.2" d="M72.3584 3.27734C74.0823 1.59675 76.8097 1.5792 78.5557 3.19727L78.7217 3.3584L78.8799 3.52832C80.4532 5.31484 80.365 8.04105 78.6416 9.72168L57.1035 30.7217C55.4638 32.3204 52.9119 32.418 51.1582 31.0195C51.1341 31.0003 51.1101 30.9803 51.0869 30.96L50.8975 30.7939C50.8708 30.7706 50.8447 30.7464 50.8193 30.7217L42.3584 22.4717C42.3344 22.4483 42.3109 22.424 42.2881 22.3994L42.1143 22.2119C42.0915 22.1874 42.0693 22.1624 42.0479 22.1367C40.5823 20.3861 40.6509 17.7777 42.2783 16.1084C43.9058 14.4395 46.51 14.305 48.2969 15.7246C48.3225 15.745 48.3475 15.7665 48.3721 15.7881L48.5645 15.957C48.5906 15.98 48.6167 16.0041 48.6416 16.0283L53.96 21.2139L72.3584 3.27734Z" fill="#877FD6" stroke="white" stroke-width="4" stroke-linecap="round" stroke-linejoin="round"/>
<path opacity="0.6" d="M53.3584 3.27734C55.0823 1.59675 57.8097 1.5792 59.5557 3.19727L59.7217 3.3584L59.8799 3.52832C61.4532 5.31484 61.365 8.04105 59.6416 9.72168L38.1035 30.7217C36.4638 32.3204 33.9119 32.418 32.1582 31.0195C32.1341 31.0003 32.1101 30.9803 32.0869 30.96L31.8975 30.7939C31.8708 30.7706 31.8447 30.7464 31.8193 30.7217L23.3584 22.4717C23.3344 22.4483 23.3109 22.424 23.2881 22.3994L23.1143 22.2119C23.0915 22.1874 23.0693 22.1624 23.0479 22.1367C21.5823 20.3861 21.6509 17.7777 23.2783 16.1084C24.9058 14.4395 27.51 14.305 29.2969 15.7246C29.3225 15.745 29.3475 15.7665 29.3721 15.7881L29.5645 15.957C29.5906 15.98 29.6167 16.0041 29.6416 16.0283L34.96 21.2139L53.3584 3.27734Z" fill="#877FD6" stroke="white" stroke-width="4" stroke-linecap="round" stroke-linejoin="round"/>
<path d="M33.3584 3.27734C35.0823 1.59675 37.8097 1.5792 39.5557 3.19727L39.7217 3.3584L39.8799 3.52832C41.4532 5.31484 41.365 8.04105 39.6416 9.72168L18.1035 30.7217C16.4638 32.3204 13.9119 32.418 12.1582 31.0195C12.1341 31.0003 12.1101 30.9803 12.0869 30.96L11.8975 30.7939C11.8708 30.7706 11.8447 30.7464 11.8193 30.7217L3.3584 22.4717C3.33439 22.4483 3.31089 22.424 3.28809 22.3994L3.11426 22.2119C3.09152 22.1874 3.06933 22.1624 3.04785 22.1367C1.58226 20.3861 1.65089 17.7777 3.27832 16.1084C4.9058 14.4395 7.50999 14.305 9.29688 15.7246C9.32248 15.745 9.34749 15.7665 9.37207 15.7881L9.56445 15.957C9.59056 15.98 9.61673 16.0041 9.6416 16.0283L14.96 21.2139L33.3584 3.27734Z" fill="#877FD6" stroke="white" stroke-width="4" stroke-linecap="round" stroke-linejoin="round"/>
</svg>
