<svg width="86" height="46" viewBox="0 0 86 46" fill="none" xmlns="http://www.w3.org/2000/svg">
<g opacity="0.5">
<path d="M73.9541 4.30286C76.1627 2.14986 79.6985 2.19517 81.8516 4.40344C84.0044 6.61206 83.9592 10.1479 81.751 12.3009L50.8662 42.4142C48.8316 44.3979 45.6646 44.5194 43.4883 42.7843C43.4642 42.7651 43.4402 42.745 43.417 42.7247L43.1455 42.4865C43.1189 42.4631 43.0927 42.4389 43.0674 42.4142L30.9346 30.5841C30.9106 30.5607 30.887 30.5364 30.8643 30.5118L30.6143 30.2423C30.5915 30.2178 30.5693 30.1928 30.5479 30.1671C28.7293 27.9948 28.8145 24.7582 30.834 22.6866L31.0273 22.4982C32.9898 20.6678 35.9564 20.5119 38.0928 22.0509L38.3037 22.2101L38.3789 22.2726L38.6553 22.5157L38.7314 22.5861L46.9658 30.6134L73.9541 4.30286Z" fill="#877FD6"/>
<path d="M73.9541 4.30286C76.1627 2.14986 79.6985 2.19517 81.8516 4.40344C84.0044 6.61206 83.9592 10.1479 81.751 12.3009L50.8662 42.4142C48.8316 44.3979 45.6646 44.5194 43.4883 42.7843C43.4642 42.7651 43.4402 42.745 43.417 42.7247L43.1455 42.4865C43.1189 42.4631 43.0927 42.4389 43.0674 42.4142L30.9346 30.5841C30.9106 30.5607 30.887 30.5364 30.8643 30.5118L30.6143 30.2423C30.5915 30.2178 30.5693 30.1928 30.5479 30.1671C28.7293 27.9948 28.8145 24.7582 30.834 22.6866L31.0273 22.4982C32.9898 20.6678 35.9564 20.5119 38.0928 22.0509L38.3037 22.2101L38.3789 22.2726L38.6553 22.5157L38.7314 22.5861L46.9658 30.6134L73.9541 4.30286Z" fill="url(#paint0_linear_1_68)"/>
<!-- <path d="M73.9541 4.30286C76.1627 2.14986 79.6985 2.19517 81.8516 4.40344C84.0044 6.61206 83.9592 10.1479 81.751 12.3009L50.8662 42.4142C48.8316 44.3979 45.6646 44.5194 43.4883 42.7843C43.4642 42.7651 43.4402 42.745 43.417 42.7247L43.1455 42.4865C43.1189 42.4631 43.0927 42.4389 43.0674 42.4142L30.9346 30.5841C30.9106 30.5607 30.887 30.5364 30.8643 30.5118L30.6143 30.2423C30.5915 30.2178 30.5693 30.1928 30.5479 30.1671C28.7293 27.9948 28.8145 24.7582 30.834 22.6866L31.0273 22.4982C32.9898 20.6678 35.9564 20.5119 38.0928 22.0509L38.3037 22.2101L38.3789 22.2726L38.6553 22.5157L38.7314 22.5861L46.9658 30.6134L73.9541 4.30286Z" stroke="white" stroke-width="4" stroke-linecap="round" stroke-linejoin="round"/> -->
</g>
<path d="M46.7062 3.58594C48.9148 1.43294 52.4506 1.47825 54.6036 3.68652C56.7565 5.89514 56.7113 9.43096 54.5031 11.584L23.6183 41.6973C21.5837 43.681 18.4166 43.8025 16.2404 42.0674C16.2163 42.0482 16.1922 42.0281 16.1691 42.0078L15.8976 41.7695C15.871 41.7462 15.8448 41.722 15.8195 41.6973L3.68665 29.8672C3.66269 29.8438 3.63909 29.8195 3.61633 29.7949L3.36633 29.5254C3.3436 29.5009 3.3214 29.4758 3.29993 29.4502C1.48134 27.2779 1.56658 24.0413 3.58606 21.9697L3.77942 21.7812C5.74191 19.9509 8.70851 19.795 10.8448 21.334L11.0558 21.4932L11.131 21.5557L11.4073 21.7988L11.4835 21.8691L19.7179 29.8965L46.7062 3.58594Z" fill="#877FD6"/>
<path d="M46.7062 3.58594C48.9148 1.43294 52.4506 1.47825 54.6036 3.68652C56.7565 5.89514 56.7113 9.43096 54.5031 11.584L23.6183 41.6973C21.5837 43.681 18.4166 43.8025 16.2404 42.0674C16.2163 42.0482 16.1922 42.0281 16.1691 42.0078L15.8976 41.7695C15.871 41.7462 15.8448 41.722 15.8195 41.6973L3.68665 29.8672C3.66269 29.8438 3.63909 29.8195 3.61633 29.7949L3.36633 29.5254C3.3436 29.5009 3.3214 29.4758 3.29993 29.4502C1.48134 27.2779 1.56658 24.0413 3.58606 21.9697L3.77942 21.7812C5.74191 19.9509 8.70851 19.795 10.8448 21.334L11.0558 21.4932L11.131 21.5557L11.4073 21.7988L11.4835 21.8691L19.7179 29.8965L46.7062 3.58594Z" fill="url(#paint1_linear_1_68)"/>
<!-- <path d="M46.7062 3.58594C48.9148 1.43294 52.4506 1.47825 54.6036 3.68652C56.7565 5.89514 56.7113 9.43096 54.5031 11.584L23.6183 41.6973C21.5837 43.681 18.4166 43.8025 16.2404 42.0674C16.2163 42.0482 16.1922 42.0281 16.1691 42.0078L15.8976 41.7695C15.871 41.7462 15.8448 41.722 15.8195 41.6973L3.68665 29.8672C3.66269 29.8438 3.63909 29.8195 3.61633 29.7949L3.36633 29.5254C3.3436 29.5009 3.3214 29.4758 3.29993 29.4502C1.48134 27.2779 1.56658 24.0413 3.58606 21.9697L3.77942 21.7812C5.74191 19.9509 8.70851 19.795 10.8448 21.334L11.0558 21.4932L11.131 21.5557L11.4073 21.7988L11.4835 21.8691L19.7179 29.8965L46.7062 3.58594Z" stroke="white" stroke-width="4" stroke-linecap="round" stroke-linejoin="round"/> -->
<defs>
<linearGradient id="paint0_linear_1_68" x1="31.248" y1="23.3584" x2="81.4371" y2="23.3584" gradientUnits="userSpaceOnUse">
<stop stop-color="#603FD9"/>
<stop offset="1" stop-color="#E83D72"/>
</linearGradient>
<linearGradient id="paint1_linear_1_68" x1="4.00012" y1="22.6415" x2="54.1892" y2="22.6415" gradientUnits="userSpaceOnUse">
<stop stop-color="#603FD9"/>
<stop offset="1" stop-color="#E83D72"/>
</linearGradient>
</defs>
</svg>
