<svg width="1440" height="781" viewBox="0 0 1440 781" fill="none" xmlns="http://www.w3.org/2000/svg">
<g clip-path="url(#clip0_1_52)">
<rect width="1440" height="781" fill="white"/>
<g filter="url(#filter0_f_1_52)">
<ellipse cx="296.407" cy="211.599" rx="296.407" ry="211.599" transform="matrix(0.0878008 -0.996138 -0.996138 -0.0878008 -36.2832 367.25)" fill="#877FD6"/>
</g>
<g filter="url(#filter1_f_1_52)">
<ellipse cx="259.966" cy="213.825" rx="259.966" ry="213.825" transform="matrix(0.806984 -0.590573 -0.590573 -0.806984 154.678 85.2535)" fill="#FFD27D"/>
</g>
<g filter="url(#filter2_f_1_52)">
<path d="M298.554 -138.086C228.812 -233.385 78.944 -242.338 -36.1857 -158.083C-151.315 -73.8277 -32.0131 -42.506 37.7291 52.7927C107.471 148.091 101.243 271.28 216.373 187.025C331.503 102.769 368.297 -42.7876 298.554 -138.086Z" fill="#D1668D"/>
</g>
<g filter="url(#filter3_f_1_52)">
<ellipse cx="296.407" cy="211.599" rx="296.407" ry="211.599" transform="matrix(-0.856542 -0.516077 -0.516077 0.856542 1868.93 629.906)" fill="#877FD6"/>
</g>
<g filter="url(#filter4_f_1_52)">
<ellipse cx="259.966" cy="213.825" rx="259.966" ry="213.825" transform="matrix(-0.176489 -0.984303 -0.984303 0.176489 1699.36 334.554)" fill="#FFD27D"/>
</g>
<g filter="url(#filter5_f_1_52)">
<path d="M1561.82 107.256C1445.58 128.098 1371.76 258.833 1396.94 399.26C1422.12 539.687 1502.62 446.235 1618.86 425.393C1735.1 404.551 1843.06 464.211 1817.88 323.784C1792.7 183.357 1678.06 86.4142 1561.82 107.256Z" fill="#D1668D"/>
</g>
</g>
<defs>
<filter id="filter0_f_1_52" x="-658.524" y="-467.527" width="874.968" height="1041.87" filterUnits="userSpaceOnUse" color-interpolation-filters="sRGB">
<feFlood flood-opacity="0" result="BackgroundImageFix"/>
<feBlend mode="normal" in="SourceGraphic" in2="BackgroundImageFix" result="shape"/>
<feGaussianBlur stdDeviation="112.54" result="effect1_foregroundBlur_1_52"/>
</filter>
<filter id="filter1_f_1_52" x="-231.792" y="-696.878" width="939.958" height="912.098" filterUnits="userSpaceOnUse" color-interpolation-filters="sRGB">
<feFlood flood-opacity="0" result="BackgroundImageFix"/>
<feBlend mode="normal" in="SourceGraphic" in2="BackgroundImageFix" result="shape"/>
<feGaussianBlur stdDeviation="112.54" result="effect1_foregroundBlur_1_52"/>
</filter>
<filter id="filter2_f_1_52" x="-421.792" y="-553.473" width="1093.27" height="1106.2" filterUnits="userSpaceOnUse" color-interpolation-filters="sRGB">
<feFlood flood-opacity="0" result="BackgroundImageFix"/>
<feBlend mode="normal" in="SourceGraphic" in2="BackgroundImageFix" result="shape"/>
<feGaussianBlur stdDeviation="168.809" result="effect1_foregroundBlur_1_52"/>
</filter>
<filter id="filter3_f_1_52" x="1004.32" y="195.928" width="1003.05" height="924.505" filterUnits="userSpaceOnUse" color-interpolation-filters="sRGB">
<feFlood flood-opacity="0" result="BackgroundImageFix"/>
<feBlend mode="normal" in="SourceGraphic" in2="BackgroundImageFix" result="shape"/>
<feGaussianBlur stdDeviation="112.54" result="effect1_foregroundBlur_1_52"/>
</filter>
<filter id="filter4_f_1_52" x="1002.47" y="-367.361" width="881.073" height="967.534" filterUnits="userSpaceOnUse" color-interpolation-filters="sRGB">
<feFlood flood-opacity="0" result="BackgroundImageFix"/>
<feBlend mode="normal" in="SourceGraphic" in2="BackgroundImageFix" result="shape"/>
<feGaussianBlur stdDeviation="112.54" result="effect1_foregroundBlur_1_52"/>
</filter>
<filter id="filter5_f_1_52" x="1054.4" y="-233.182" width="1104.79" height="1045.96" filterUnits="userSpaceOnUse" color-interpolation-filters="sRGB">
<feFlood flood-opacity="0" result="BackgroundImageFix"/>
<feBlend mode="normal" in="SourceGraphic" in2="BackgroundImageFix" result="shape"/>
<feGaussianBlur stdDeviation="168.809" result="effect1_foregroundBlur_1_52"/>
</filter>
<clipPath id="clip0_1_52">
<rect width="1440" height="781" fill="white"/>
</clipPath>
</defs>
</svg>
