<svg width="16" height="16" viewBox="0 0 16 16" fill="none" xmlns="http://www.w3.org/2000/svg">
<path fill-rule="evenodd" clip-rule="evenodd" d="M8 0C3.582 0 0 3.581 0 8C0 12.419 3.582 16 8 16C12.418 16 16 12.419 16 8C16 3.581 12.418 0 8 0ZM8 14C7.44769 14 7 13.5523 7 13C7 12.4469 7.44769 12 8 12C8.55231 12 9 12.4469 9 13C9 13.5523 8.55231 14 8 14ZM9.647 8.243C9.174 8.608 8.913 8.809 8.913 9.39V10.204C8.913 10.663 8.507 11.038 8.006 11.038C7.504 11.038 7.097 10.663 7.097 10.204V9.39C7.097 8.033 7.928 7.392 8.477 6.968C8.951 6.602 9.211 6.402 9.211 5.822C9.211 5.168 8.67 4.634 8.006 4.634C7.341 4.634 6.801 5.167 6.801 5.822C6.801 6.283 6.393 6.655 5.892 6.655C5.392 6.655 4.983 6.283 4.983 5.822C4.983 4.248 6.34 2.968 8.006 2.968C9.671 2.968 11.027 4.247 11.027 5.822C11.027 7.178 10.197 7.818 9.647 8.243Z" fill="url(#paint0_linear_1_66)"/>
<defs>
<linearGradient id="paint0_linear_1_66" x1="0" y1="8" x2="16" y2="8" gradientUnits="userSpaceOnUse">
<stop stop-color="#603FD9"/>
<stop offset="1" stop-color="#E83D72"/>
</linearGradient>
</defs>
</svg>
